<svg width="167" height="32" viewBox="0 0 167 32" fill="none" xmlns="http://www.w3.org/2000/svg">
<path d="M151.099 16.7398V4.15833H127.709V13.8964L128.588 11.8988H130.071L130.566 13.078V11.8988H132.379L132.928 13.078L133.464 11.8988H139.864C140.111 11.8988 140.454 11.9821 140.606 12.2595V11.8988H141.952V12.329C142.116 12.093 142.377 11.8988 142.899 11.8988H145.632L146.127 13.0503V11.8988H147.747L148.31 12.8975V11.8988H149.794V15.5888H148.2L147.541 14.4929V15.5888H145.522L145.206 14.8675H144.561L144.259 15.5888H142.995C142.721 15.5611 142.089 15.4502 141.952 15.0202V15.5888H139.521V14.7703C139.521 14.6594 139.411 14.5205 139.273 14.5205H139.012V15.5885H133.848V14.7563L133.45 15.5885H132.406L132.008 14.7424V15.5885H129.934L129.659 14.9228H129L128.711 15.5885H127.709V27.4766H151.099V20.1939C150.975 20.3327 150.769 20.4437 150.467 20.4437H148.517V20.1662C148.365 20.3327 148.16 20.4437 147.816 20.4437H142.309V19.6666C142.295 19.5696 142.35 19.3615 142.075 19.3615H141.842V20.4439H140.386V19.1952C140.235 19.445 139.905 19.4591 139.685 19.4726H138.916V20.4439H136.966L136.403 19.75L135.798 20.4439H132.475V16.7398H135.853L136.43 17.4199L137.035 16.7398H139.699C139.892 16.7537 140.249 16.8509 140.386 17.0453V16.7398H142.652C142.858 16.7398 143.243 16.8372 143.408 17.1006V16.7398H146.264V17.073C146.415 16.8649 146.649 16.7398 147.019 16.7398H148.846V17.059C148.984 16.8509 149.341 16.7398 149.561 16.7398H151.099Z" fill="#00ACEC"/>
<path d="M165.464 18.9869L157.031 27.4766H158.226L165.464 20.194V18.9869V18.9869Z" fill="#33348E"/>
<path d="M165.465 21.3594L159.395 27.4766H160.589L165.465 22.566V21.3594V21.3594Z" fill="#00ACEC"/>
<path d="M165.466 23.7313L161.744 27.4766H162.953L165.466 24.9383V23.7313V23.7313Z" fill="#33A457"/>
<path fill-rule="evenodd" clip-rule="evenodd" d="M126.473 2.896H146.676H166.838V28.7667H126.473V2.896ZM126.941 28.3088H166.413H166.414V3.36778H126.941V28.3088Z" fill="#00ACEC"/>
<path fill-rule="evenodd" clip-rule="evenodd" d="M152.225 26.367C152.225 25.7704 152.706 25.2988 153.296 25.2988C153.576 25.2989 153.845 25.4115 154.043 25.6118C154.242 25.8121 154.353 26.0838 154.353 26.367C154.353 26.9491 153.873 27.4348 153.296 27.4348C152.706 27.4348 152.225 26.9493 152.225 26.367ZM152.362 26.3673C152.362 26.88 152.774 27.2964 153.296 27.3104C153.804 27.3104 154.216 26.88 154.216 26.3673C154.216 25.8399 153.804 25.4237 153.296 25.4237C152.774 25.4237 152.362 25.8399 152.362 26.3673Z" fill="#00ACEC"/>
<path fill-rule="evenodd" clip-rule="evenodd" d="M132.077 12.3289L132.914 14.2293L133.753 12.3289H134.852V15.1587H134.165V13.0918L133.231 15.1587H132.599L131.679 13.0502V15.1587H130.291L130.017 14.5206H128.643L128.382 15.1587H127.654L128.876 12.3289H129.783L130.992 15.0478V12.3289H132.077ZM153.832 26.0757C153.832 25.9787 153.791 25.8816 153.709 25.826C153.613 25.7706 153.516 25.7706 153.42 25.7706H152.898V26.9637H153.049V26.4087H153.31L153.653 26.9637H153.818L153.461 26.4087C153.667 26.4085 153.832 26.3115 153.832 26.0757ZM153.297 26.2978H153.049V25.8674H153.379C153.53 25.8674 153.695 25.8951 153.695 26.0755C153.695 26.2994 153.485 26.2985 153.323 26.2978L153.297 26.2978ZM129.33 13.9102H128.918L129.33 12.9253V12.953L129.756 13.91H129.33V13.9102ZM139.754 12.3289C140.098 12.3289 140.579 12.4816 140.579 13.078C140.579 13.4245 140.483 13.6745 140.111 13.8691C140.427 13.9105 140.551 14.1186 140.551 14.5764L140.578 15.1589H139.906L139.892 14.6318C139.892 14.3958 139.796 14.16 139.548 14.16H138.656V15.1587H137.969V12.3289H139.754ZM139.508 13.5773H138.656V12.9392H139.508C139.796 12.9392 139.892 13.1197 139.892 13.2583C139.892 13.4524 139.796 13.5773 139.508 13.5773ZM141.621 15.1587H140.935V12.3289H141.621V15.1587ZM148.71 12.3289V14.2848L147.542 12.3289H146.526V14.9782L145.345 12.3289H144.438L143.49 14.5206C143.49 14.5206 143.147 14.5206 143.106 14.5069C142.886 14.4792 142.625 14.2572 142.625 13.7577C142.625 13.0918 142.982 12.9392 143.435 12.9392H143.861V12.3289H142.968C142.653 12.3289 141.966 12.5646 141.952 13.7298C141.925 14.5067 142.268 15.1587 143.037 15.1587H143.944L144.205 14.5206H145.578L145.853 15.1587H147.213V13.0918L148.449 15.1587H149.397V12.3289H148.71ZM144.479 13.9102H144.905V13.91H145.317L144.905 12.953L144.891 12.9253L144.479 13.9102ZM135.318 15.1587H137.571V14.5623H136.005V14.0072H137.53V13.4661H136.005V12.9392H137.571V12.3289H135.318V15.1587ZM147.509 18.2736L147.509 18.2736C147.608 18.2767 147.701 18.2796 147.72 18.2796C148.572 18.3215 148.64 18.7512 148.64 19.2093C148.64 19.7366 148.215 20.0136 147.761 20.0136H146.319V19.4174H147.446C147.638 19.4174 147.912 19.4174 147.912 19.14C147.912 19.0153 147.871 18.9319 147.665 18.9042C147.569 18.89 147.239 18.8765 147.184 18.8765C146.429 18.8623 146.25 18.4738 146.25 18.0027C146.25 17.4753 146.621 17.1838 147.061 17.1838H148.517V17.7941H147.459C147.438 17.7941 147.418 17.7939 147.397 17.7937C147.17 17.7916 146.951 17.7896 146.951 18.0439C146.951 18.2103 147.075 18.2522 147.239 18.2661C147.269 18.2661 147.393 18.27 147.508 18.2736L147.509 18.2736L147.509 18.2736L147.509 18.2736ZM150.302 18.2796C150.283 18.2796 150.19 18.2767 150.09 18.2736C149.975 18.27 149.851 18.2661 149.822 18.2661C149.657 18.2522 149.533 18.2103 149.533 18.0439C149.533 17.7895 149.753 17.7916 149.969 17.7937C149.989 17.7939 150.008 17.7941 150.028 17.7941H151.085V17.1838H149.643C149.19 17.1838 148.819 17.4753 148.819 18.0027C148.819 18.4738 148.997 18.8623 149.767 18.8765C149.822 18.8765 150.151 18.89 150.247 18.9042C150.44 18.9319 150.494 19.0153 150.494 19.14C150.494 19.4174 150.206 19.4174 150.014 19.4174H148.888V20.0136H150.343C150.797 20.0136 151.222 19.7366 151.222 19.2093C151.222 18.7512 151.154 18.3215 150.302 18.2796ZM137.199 17.1838H139.617C139.96 17.1838 140.454 17.3502 140.454 18.0439C140.454 19.0428 139.795 19.0563 139.438 19.0563H138.518V20.0136H137.199L136.389 19.0705L135.565 20.0001H132.928V17.1838H135.647L136.416 18.058L137.199 17.1838ZM135.194 19.4174H133.628V18.8488H135.139V18.3215H133.628V17.7941H135.194L135.963 18.5573L135.194 19.4174ZM137.337 19.1539L137.831 19.7366V17.4614L137.337 18.0164L136.842 18.5573L137.337 19.1539ZM139.37 18.4738H138.518V17.7941H139.37C139.658 17.7941 139.755 17.9746 139.755 18.1134C139.755 18.3073 139.659 18.4738 139.37 18.4738ZM142.57 17.1838C142.9 17.1838 143.394 17.3365 143.394 17.9469C143.394 18.2796 143.298 18.5435 142.913 18.7235C143.243 18.7652 143.367 18.9733 143.367 19.4309L143.394 20.0136H142.721L142.707 19.5004C142.694 19.2509 142.598 19.0151 142.364 19.0151H141.458V20.0136H140.771V17.1838H142.57ZM142.323 18.4324H141.458V17.7939H142.323C142.611 17.7939 142.707 17.9743 142.707 18.1132C142.708 18.3073 142.598 18.4324 142.323 18.4324ZM145.976 20.0001H143.737V17.1838H145.976V17.7941H144.424V18.3215H145.935V18.8488H144.424V19.4174H145.976V20.0001ZM154.038 17.4472C153.461 17.4472 153.351 16.9896 153.351 16.5041C153.351 15.8383 153.598 15.4916 153.982 15.4916C154.34 15.4916 154.573 15.6998 154.601 16.0602H155.672C155.59 15.1726 154.999 14.6455 153.941 14.6455C152.98 14.6455 152.225 15.3391 152.225 16.4629C152.225 17.6002 152.911 18.2938 154.051 18.2938C154.958 18.2938 155.603 17.7529 155.7 16.8649H154.615C154.573 17.1977 154.394 17.4472 154.038 17.4472ZM157.265 15.6165C158.46 15.6165 158.529 16.0602 158.529 16.6568H158.529V17.836C158.529 17.9887 158.543 18.1136 158.584 18.2106H157.691L157.582 17.9471C157.444 18.0857 157.293 18.1687 157.128 18.2245C156.977 18.2663 156.826 18.2799 156.647 18.2799C156.167 18.2799 155.755 18.0441 155.755 17.5172C155.755 16.8303 156.397 16.7504 156.908 16.6868C156.985 16.6772 157.059 16.668 157.128 16.657C157.361 16.6154 157.54 16.5736 157.54 16.4213C157.54 16.2408 157.307 16.2132 157.211 16.2132C157.183 16.2132 157.155 16.2132 157.128 16.2267C157.005 16.2267 156.881 16.2825 156.853 16.4629H155.906C155.906 15.9495 156.249 15.6442 157.128 15.6165H157.265ZM157.128 17.7111H157.045C156.839 17.7111 156.729 17.6276 156.729 17.503C156.729 17.2949 156.908 17.2533 157.128 17.2119L157.164 17.2044C157.292 17.1786 157.427 17.1512 157.54 17.1007C157.54 17.5307 157.416 17.6834 157.128 17.7111ZM159.642 15.6858V16.1988C159.779 15.7967 160.026 15.6165 160.411 15.6163C160.452 15.6163 160.507 15.6163 160.548 15.6302V16.4762H160.342C159.93 16.4762 159.724 16.6703 159.724 17.2116V18.2101H158.735V15.6858H159.642ZM162.43 14.7425V15.9355C162.306 15.7967 162.183 15.7135 162.032 15.6584C161.936 15.6307 161.812 15.6167 161.674 15.6167C161.084 15.6167 160.617 16.1578 160.617 16.99C160.617 17.7115 161.001 18.2801 161.757 18.2801C161.853 18.2801 161.949 18.2801 162.032 18.2524C162.224 18.1971 162.361 18.0859 162.526 17.8778V18.2106H163.419V14.7425H162.43ZM162.004 17.5583H162.032C162.362 17.5446 162.458 17.253 162.458 16.9763C162.458 16.6987 162.362 16.3936 162.032 16.3936C161.702 16.3936 161.62 16.7124 161.62 16.9898C161.62 17.2533 161.675 17.5583 162.004 17.5583Z" fill="#00ACEC"/>
<path fill-rule="evenodd" clip-rule="evenodd" d="M101.692 26.3915V29.2832V30.8876H100.968V30.4982C100.738 30.7868 100.39 30.9681 99.9169 30.9681C98.984 30.9681 98.2526 30.2631 98.2526 29.284C98.2526 28.3049 98.9844 27.6 99.9169 27.6C100.39 27.6 100.738 27.7811 100.968 28.0699V26.3915H101.692ZM74.5516 27.6791V29.2833H74.5508V30.8876H73.8281V30.4982C73.5986 30.7868 73.2504 30.9681 72.7772 30.9681C71.8444 30.9681 71.113 30.2631 71.113 29.284C71.113 28.3049 71.8448 27.6 72.7772 27.6C73.2506 27.6 73.5986 27.7811 73.8281 28.0699V27.6791H74.5516ZM71.8581 29.2833C71.8581 28.7196 72.2412 28.2565 72.8674 28.2565C73.4658 28.2565 73.8696 28.6996 73.8696 29.2833C73.8696 29.8669 73.4658 30.3101 72.8674 30.3101C72.2412 30.3101 71.8581 29.847 71.8581 29.2833ZM103.136 30.5187C103.072 30.4585 102.987 30.4248 102.898 30.4249L102.899 30.4216C102.853 30.4213 102.808 30.4299 102.766 30.447C102.726 30.4625 102.689 30.4858 102.658 30.5154C102.628 30.5443 102.603 30.5788 102.586 30.6168C102.551 30.6958 102.551 30.7851 102.586 30.864C102.603 30.9029 102.627 30.9385 102.657 30.9687C102.688 30.9978 102.725 31.021 102.765 31.0371C102.807 31.0542 102.852 31.0629 102.898 31.0625C102.943 31.0628 102.988 31.0541 103.029 31.0371C103.069 31.0207 103.105 30.9975 103.136 30.9687C103.166 30.9396 103.191 30.9052 103.208 30.8673C103.243 30.7884 103.243 30.6991 103.208 30.6201C103.191 30.5821 103.167 30.5476 103.136 30.5187ZM102.897 30.9896C102.932 30.9899 102.966 30.9833 102.997 30.9701C103.027 30.9575 103.055 30.9396 103.078 30.9171C103.101 30.8947 103.12 30.8682 103.133 30.839C103.16 30.777 103.16 30.7075 103.133 30.6455C103.12 30.6164 103.101 30.5899 103.078 30.5674C103.055 30.545 103.027 30.527 102.997 30.5144C102.965 30.502 102.931 30.4957 102.897 30.4961C102.863 30.4958 102.828 30.502 102.796 30.5144C102.765 30.5268 102.737 30.5447 102.713 30.5674C102.64 30.6399 102.618 30.7475 102.659 30.8409C102.671 30.8703 102.69 30.8968 102.713 30.9191C102.737 30.9417 102.765 30.9597 102.796 30.972C102.828 30.9852 102.863 30.9919 102.897 30.9916V30.9896ZM103.008 30.6171C102.982 30.5988 102.95 30.5899 102.917 30.5918L102.918 30.592H102.777V30.8867H102.842V30.7765H102.872L102.965 30.8867H103.043L102.942 30.7757C102.969 30.7738 102.994 30.7636 103.014 30.7467C103.031 30.731 103.041 30.7089 103.04 30.6861C103.041 30.6595 103.029 30.634 103.008 30.6171ZM102.841 30.7253V30.6471V30.6463H102.917C102.931 30.6457 102.945 30.6492 102.957 30.6563C102.967 30.6628 102.973 30.6738 102.972 30.6854C102.973 30.6972 102.967 30.7085 102.957 30.7153C102.945 30.7221 102.931 30.7255 102.917 30.7253H102.841ZM98.9977 29.2833C98.9977 28.7196 99.3808 28.2565 100.007 28.2565C100.606 28.2565 101.009 28.6996 101.009 29.2833C101.009 29.8669 100.606 30.3101 100.007 30.3101C99.381 30.3101 98.9977 29.847 98.9977 29.2833ZM83.5318 28.2234C83.9979 28.2235 84.2972 28.5052 84.3736 29.0012H82.6474C82.7246 28.5382 83.0163 28.2234 83.5318 28.2234ZM81.8884 29.2823C81.8884 28.2821 82.5706 27.5982 83.5456 27.5982L83.5452 27.598C84.4765 27.598 85.1179 28.2823 85.1252 29.2821C85.1252 29.3742 85.1181 29.4603 85.1112 29.5456L85.1112 29.5456L85.1108 29.5501H82.6403C82.7447 30.1275 83.1692 30.3356 83.6354 30.3356C83.9693 30.3356 84.3245 30.215 84.6034 30.0001L84.9579 30.5169C84.5541 30.8457 84.0952 30.9663 83.5941 30.9663C82.5979 30.9663 81.8884 30.302 81.8884 29.2823ZM92.2806 29.2821C92.2806 28.7184 92.6637 28.2553 93.2899 28.2553C93.8883 28.2553 94.2921 28.6984 94.2921 29.2821C94.2921 29.8657 93.8883 30.3088 93.2899 30.3088C92.6637 30.3088 92.2804 29.8458 92.2804 29.2821H92.2806ZM94.9735 27.6791V29.2821L94.9737 29.2833V30.8876H94.2504V30.4982C94.0201 30.7868 93.6729 30.9681 93.1996 30.9681C92.2667 30.9681 91.5353 30.2631 91.5353 29.284C91.5353 28.3049 92.2671 27.6 93.1996 27.6C93.6729 27.6 94.0201 27.7811 94.2504 28.0699V27.6791H94.9735ZM88.1945 29.2821C88.1945 30.2549 88.8971 30.9661 89.9694 30.9661C90.4706 30.9661 90.8044 30.8587 91.1655 30.5837L90.818 30.02C90.5464 30.2082 90.2611 30.3088 89.9463 30.3088C89.3688 30.302 88.9441 29.8995 88.9441 29.2821C88.9441 28.6646 89.3688 28.2623 89.9463 28.2553C90.2603 28.2553 90.5456 28.3559 90.818 28.5441L91.1655 27.9804C90.8038 27.7055 90.4699 27.598 89.9694 27.598C88.8971 27.598 88.1945 28.309 88.1945 29.2821ZM96.6441 28.0679C96.832 27.7862 97.1038 27.598 97.5212 27.598L97.5208 27.5986C97.6674 27.5986 97.8762 27.6254 98.0363 27.6861L97.8133 28.3434C97.6695 28.288 97.5157 28.2606 97.3609 28.2627C96.888 28.2627 96.6514 28.5576 96.6514 29.0882V30.8858H95.9271V27.6791H96.6441V28.0679ZM78.1285 27.934C77.7805 27.7129 77.3009 27.5986 76.7718 27.5986C75.9289 27.5986 75.3863 27.988 75.3863 28.6251C75.3863 29.148 75.7903 29.4706 76.5342 29.5712L76.876 29.6181C77.2727 29.6718 77.46 29.7724 77.46 29.9536C77.46 30.2015 77.1965 30.343 76.7017 30.343C76.2006 30.343 75.8389 30.1886 75.5951 30.0075L75.2551 30.5513C75.6518 30.833 76.1529 30.9674 76.6956 30.9674C77.6564 30.9674 78.2133 30.5313 78.2133 29.9207C78.2133 29.357 77.775 29.0622 77.0509 28.9616L76.71 28.9139C76.3968 28.8748 76.1458 28.8141 76.1458 28.5991C76.1458 28.3647 76.3824 28.2236 76.7793 28.2236C77.204 28.2236 77.6151 28.378 77.8166 28.4985L78.1298 27.9348L78.1285 27.934ZM86.5878 28.0691C86.7749 27.7873 87.0467 27.5992 87.4641 27.5992L87.4637 27.5986C87.6102 27.5986 87.819 27.6253 87.9792 27.6861L87.7562 28.3434C87.6124 28.288 87.4586 28.2605 87.3037 28.2627C86.8308 28.2627 86.5943 28.5575 86.5943 29.0882V30.8858H85.8708V27.6791H86.5878V28.0691ZM81.2903 27.6791H80.1073V26.7063H79.3759V27.6791H78.7011V28.3165H79.3759V29.7793C79.3759 30.5233 79.6756 30.9665 80.5314 30.9665C80.8454 30.9665 81.207 30.8727 81.4365 30.7185L81.2275 30.1214C81.0116 30.242 80.7751 30.3028 80.5869 30.3028C80.2253 30.3028 80.1073 30.0878 80.1073 29.766V28.317H81.2903V27.6791ZM70.4736 28.8741V30.8866L69.7406 30.8851V29.1004C69.7406 28.5568 69.5049 28.2549 69.0109 28.2549C68.5306 28.2549 68.1968 28.5507 68.1968 29.1074V30.8855H67.4654V29.1008C67.4654 28.5572 67.2223 28.2553 66.7419 28.2553C66.2473 28.2553 65.927 28.5511 65.927 29.1078V30.8859H65.1973V27.6791H65.9213V28.0756C66.1932 27.7 66.5404 27.5994 66.8958 27.5994C67.4042 27.5994 67.7658 27.8143 67.9953 28.1699C68.302 27.7199 68.74 27.5925 69.1647 27.5994C69.9725 27.6062 70.4736 28.1162 70.4736 28.8741Z" fill="#0B1129"/>
<path fill-rule="evenodd" clip-rule="evenodd" d="M103.253 19.7505V20.2195H103.164V19.8654L103.027 20.171H102.934L102.797 19.8662V20.2195H102.707V19.7505H102.834L102.98 20.0723L103.126 19.7505H103.253ZM102.449 19.8311V20.2197H102.449H102.359V19.8311H102.197V19.7519H102.612V19.8311H102.449Z" fill="#F79410"/>
<path d="M88.8544 22.2305H77.8906V3.23877H88.8546L88.8544 22.2305Z" fill="#FF5F00"/>
<path d="M78.5847 12.7351C78.5847 8.8826 80.4562 5.4508 83.3703 3.2392C81.1645 1.56266 78.4361 0.652751 75.627 0.656751C68.7071 0.656751 63.0977 6.06432 63.0977 12.7351C63.0977 19.4058 68.7071 24.8134 75.627 24.8134C78.4362 24.8174 81.1646 23.9075 83.3705 22.2309C80.4566 20.0197 78.5847 16.5877 78.5847 12.7351Z" fill="#EB001B"/>
<path d="M103.645 12.7351C103.645 19.4058 98.0356 24.8134 91.1157 24.8134C88.3061 24.8174 85.5774 23.9075 83.3711 22.231C86.2861 20.0194 88.1575 16.5878 88.1575 12.7351C88.1575 8.88241 86.2861 5.4508 83.3711 3.2392C85.5774 1.56271 88.306 0.652821 91.1155 0.656751C98.0354 0.656751 103.645 6.06432 103.645 12.7351" fill="#F79E1B"/>
<path fill-rule="evenodd" clip-rule="evenodd" d="M29.4184 10.3839L28.9489 13.0992C27.541 12.323 24.3369 12.1393 24.3366 13.5691C24.3366 14.137 25.0615 14.5277 25.9353 14.9985C27.2605 15.7125 28.9279 16.611 28.9279 18.5922C28.9279 21.7582 25.5409 22.9214 23.2958 22.9214C21.0514 22.9214 19.5823 22.2074 19.5823 22.2074L20.0714 19.3682C21.4184 20.4502 25.5 20.7577 25.5 19.0418C25.5 18.3207 24.6966 17.8955 23.7648 17.4025C22.4793 16.7221 20.9496 15.9126 20.9496 14.0186C20.9496 10.5465 24.8267 9.83252 26.4593 9.83252C27.9696 9.83252 29.4184 10.3839 29.4184 10.3839ZM11.4972 10.0578L8.3607 18.755L7.98956 16.8821L7.98989 16.8828L6.88288 11.1963C6.88288 11.1963 6.74902 10.0578 5.32224 10.0578H0.137015L0.0761719 10.2719C0.0761719 10.2719 1.66182 10.602 3.51755 11.7172L6.37585 22.7029H9.80371L15.0379 10.0578H11.4972ZM17.5543 22.7032H14.2643L16.3205 10.0585H19.6108L17.5543 22.7032ZM40.3954 22.7032H37.3745L36.9892 20.825H32.8069L32.121 22.7032H28.6915L33.5982 11.0005C33.5982 11.0005 33.8956 10.0581 35.1169 10.0581H37.7616L40.3954 22.7032ZM33.7544 18.2303L35.483 13.4984L36.4555 18.2303H33.7544Z" fill="#2566AF"/>
<path d="M7.9899 16.8831L6.88288 11.1966C6.88288 11.1966 6.74902 10.0581 5.32224 10.0581H0.137015L0.0761719 10.2722C0.0761719 10.2722 2.56839 10.789 4.95887 12.7255C7.24456 14.5763 7.9899 16.8831 7.9899 16.8831Z" fill="#E6A540"/>
</svg>
