<svg width="186" height="61" viewBox="0 0 186 61" fill="none" xmlns="http://www.w3.org/2000/svg">
<path d="M26.036 27.096H19.764L20.52 23.4H37.6L36.844 27.096H30.6L27.408 43H22.872L26.036 27.096ZM50.7845 34.348C50.7845 35.0387 50.7005 35.804 50.5325 36.644H38.9965C39.1459 38.6973 40.4432 39.724 42.8885 39.724C43.6539 39.724 44.3819 39.6027 45.0725 39.36C45.7819 39.1173 46.3979 38.772 46.9205 38.324L48.7405 41.208C47.9005 41.88 46.9392 42.384 45.8565 42.72C44.7739 43.056 43.6352 43.224 42.4405 43.224C40.8912 43.224 39.5285 42.9533 38.3525 42.412C37.1952 41.852 36.2992 41.0587 35.6645 40.032C35.0485 39.0053 34.7405 37.82 34.7405 36.476C34.7405 34.8147 35.1139 33.3213 35.8605 31.996C36.6259 30.652 37.6805 29.6067 39.0245 28.86C40.3685 28.0947 41.8992 27.712 43.6165 27.712C45.0725 27.712 46.3325 27.9827 47.3965 28.524C48.4792 29.0653 49.3099 29.84 49.8885 30.848C50.4859 31.856 50.7845 33.0227 50.7845 34.348ZM43.4205 30.988C42.3939 30.988 41.5259 31.268 40.8165 31.828C40.1072 32.3693 39.6032 33.1253 39.3045 34.096H46.7805C46.7805 33.1253 46.4725 32.3693 45.8565 31.828C45.2592 31.268 44.4472 30.988 43.4205 30.988ZM57.6258 43.224C56.3191 43.224 55.0778 43.084 53.9018 42.804C52.7444 42.5053 51.8391 42.1227 51.1858 41.656L52.8658 38.492C53.5191 38.9213 54.3124 39.2667 55.2458 39.528C56.1978 39.7893 57.1498 39.92 58.1018 39.92C59.0911 39.92 59.8284 39.7987 60.3138 39.556C60.7991 39.2947 61.0418 38.9307 61.0418 38.464C61.0418 38.0907 60.8271 37.82 60.3978 37.652C59.9684 37.484 59.2778 37.3067 58.3258 37.12C57.2431 36.9147 56.3471 36.6907 55.6378 36.448C54.9471 36.2053 54.3404 35.8133 53.8178 35.272C53.3138 34.712 53.0618 33.956 53.0618 33.004C53.0618 31.3427 53.7524 30.0453 55.1338 29.112C56.5338 28.1787 58.3631 27.712 60.6218 27.712C61.6671 27.712 62.6844 27.824 63.6738 28.048C64.6631 28.272 65.5031 28.58 66.1938 28.972L64.6258 32.164C63.3938 31.3987 61.9098 31.016 60.1738 31.016C59.2218 31.016 58.4938 31.156 57.9898 31.436C57.5044 31.716 57.2618 32.0707 57.2618 32.5C57.2618 32.892 57.4764 33.1813 57.9058 33.368C58.3351 33.536 59.0538 33.7227 60.0618 33.928C61.1258 34.1333 61.9938 34.3573 62.6658 34.6C63.3564 34.824 63.9538 35.2067 64.4578 35.748C64.9618 36.2893 65.2138 37.0267 65.2138 37.96C65.2138 39.64 64.5044 40.9373 63.0858 41.852C61.6858 42.7667 59.8658 43.224 57.6258 43.224ZM73.072 37.68C73.0346 37.8293 73.016 38.0347 73.016 38.296C73.016 39.2667 73.548 39.752 74.612 39.752C75.1906 39.752 75.7786 39.5747 76.376 39.22L77.02 42.328C76.0493 42.9253 74.7986 43.224 73.268 43.224C71.8493 43.224 70.7106 42.8507 69.852 42.104C68.9933 41.3573 68.564 40.3307 68.564 39.024C68.564 38.6507 68.6106 38.212 68.704 37.708L69.908 31.632H67.584L68.256 28.272H70.58L71.308 24.604H75.676L74.948 28.272H78.7L78.028 31.632H74.276L73.072 37.68ZM91.68 23.4H96.244L92.324 43H87.76L91.68 23.4ZM108.551 27.712C110.231 27.712 111.565 28.16 112.555 29.056C113.544 29.9333 114.039 31.1933 114.039 32.836C114.039 33.452 113.973 34.0587 113.843 34.656L112.163 43H107.795L109.419 34.936C109.493 34.6187 109.531 34.2733 109.531 33.9C109.531 33.116 109.316 32.5187 108.887 32.108C108.457 31.6973 107.813 31.492 106.955 31.492C105.835 31.492 104.901 31.8187 104.155 32.472C103.427 33.1067 102.932 34.068 102.671 35.356L101.159 43H96.7907L99.7867 27.936H103.931L103.595 29.56C104.939 28.328 106.591 27.712 108.551 27.712ZM121.761 43.224C120.455 43.224 119.213 43.084 118.037 42.804C116.88 42.5053 115.975 42.1227 115.321 41.656L117.001 38.492C117.655 38.9213 118.448 39.2667 119.381 39.528C120.333 39.7893 121.285 39.92 122.237 39.92C123.227 39.92 123.964 39.7987 124.449 39.556C124.935 39.2947 125.177 38.9307 125.177 38.464C125.177 38.0907 124.963 37.82 124.533 37.652C124.104 37.484 123.413 37.3067 122.461 37.12C121.379 36.9147 120.483 36.6907 119.773 36.448C119.083 36.2053 118.476 35.8133 117.953 35.272C117.449 34.712 117.197 33.956 117.197 33.004C117.197 31.3427 117.888 30.0453 119.269 29.112C120.669 28.1787 122.499 27.712 124.757 27.712C125.803 27.712 126.82 27.824 127.809 28.048C128.799 28.272 129.639 28.58 130.329 28.972L128.761 32.164C127.529 31.3987 126.045 31.016 124.309 31.016C123.357 31.016 122.629 31.156 122.125 31.436C121.64 31.716 121.397 32.0707 121.397 32.5C121.397 32.892 121.612 33.1813 122.041 33.368C122.471 33.536 123.189 33.7227 124.197 33.928C125.261 34.1333 126.129 34.3573 126.801 34.6C127.492 34.824 128.089 35.2067 128.593 35.748C129.097 36.2893 129.349 37.0267 129.349 37.96C129.349 39.64 128.64 40.9373 127.221 41.852C125.821 42.7667 124.001 43.224 121.761 43.224ZM134.268 27.936H138.608L135.612 43H131.272L134.268 27.936ZM137.18 25.836C136.433 25.836 135.817 25.6213 135.332 25.192C134.865 24.744 134.632 24.2027 134.632 23.568C134.632 22.8213 134.893 22.2053 135.416 21.72C135.957 21.216 136.657 20.964 137.516 20.964C138.281 20.964 138.897 21.1787 139.364 21.608C139.849 22.0187 140.092 22.532 140.092 23.148C140.092 23.9507 139.821 24.604 139.28 25.108C138.738 25.5933 138.038 25.836 137.18 25.836ZM159.249 22.224L155.105 43H150.961L151.269 41.488C150 42.6453 148.46 43.224 146.649 43.224C145.473 43.224 144.391 42.9533 143.401 42.412C142.412 41.8707 141.619 41.096 141.021 40.088C140.443 39.0613 140.153 37.8573 140.153 36.476C140.153 34.8147 140.517 33.3213 141.245 31.996C141.992 30.652 143 29.6067 144.269 28.86C145.539 28.0947 146.939 27.712 148.469 27.712C149.571 27.712 150.532 27.8987 151.353 28.272C152.193 28.6453 152.856 29.196 153.341 29.924L154.881 22.224H159.249ZM147.993 39.612C148.852 39.612 149.617 39.4067 150.289 38.996C150.961 38.5667 151.484 37.9787 151.857 37.232C152.231 36.4853 152.417 35.6267 152.417 34.656C152.417 33.6293 152.109 32.8173 151.493 32.22C150.896 31.6227 150.056 31.324 148.973 31.324C148.115 31.324 147.349 31.5387 146.677 31.968C146.005 32.3787 145.483 32.9573 145.109 33.704C144.736 34.4507 144.549 35.3093 144.549 36.28C144.549 37.3067 144.848 38.1187 145.445 38.716C146.061 39.3133 146.911 39.612 147.993 39.612ZM175.651 34.348C175.651 35.0387 175.567 35.804 175.399 36.644H163.863C164.012 38.6973 165.31 39.724 167.755 39.724C168.52 39.724 169.248 39.6027 169.939 39.36C170.648 39.1173 171.264 38.772 171.787 38.324L173.607 41.208C172.767 41.88 171.806 42.384 170.723 42.72C169.64 43.056 168.502 43.224 167.307 43.224C165.758 43.224 164.395 42.9533 163.219 42.412C162.062 41.852 161.166 41.0587 160.531 40.032C159.915 39.0053 159.607 37.82 159.607 36.476C159.607 34.8147 159.98 33.3213 160.727 31.996C161.492 30.652 162.547 29.6067 163.891 28.86C165.235 28.0947 166.766 27.712 168.483 27.712C169.939 27.712 171.199 27.9827 172.263 28.524C173.346 29.0653 174.176 29.84 174.755 30.848C175.352 31.856 175.651 33.0227 175.651 34.348ZM168.287 30.988C167.26 30.988 166.392 31.268 165.683 31.828C164.974 32.3693 164.47 33.1253 164.171 34.096H171.647C171.647 33.1253 171.339 32.3693 170.723 31.828C170.126 31.268 169.314 30.988 168.287 30.988Z" fill="#2E97E1"/>
<path d="M21.04 52.3L20.74 53.82H23.99L23.74 55.08H20.48L20.16 56.7H23.98L23.71 58H18.29L19.69 51H24.98L24.71 52.3H21.04ZM31.4339 52.62L30.3639 58H28.8839L28.9839 57.47C28.5373 57.8767 27.9873 58.08 27.3339 58.08C26.9139 58.08 26.5273 57.9833 26.1739 57.79C25.8206 57.5967 25.5373 57.32 25.3239 56.96C25.1173 56.5933 25.0139 56.1633 25.0139 55.67C25.0139 55.0767 25.1439 54.5433 25.4039 54.07C25.6706 53.59 26.0306 53.2167 26.4839 52.95C26.9373 52.6767 27.4373 52.54 27.9839 52.54C28.8106 52.54 29.3939 52.81 29.7339 53.35L29.8739 52.62H31.4339ZM27.8139 56.79C28.1206 56.79 28.3939 56.7167 28.6339 56.57C28.8739 56.4167 29.0606 56.2067 29.1939 55.94C29.3273 55.6733 29.3939 55.3667 29.3939 55.02C29.3939 54.6533 29.2839 54.3633 29.0639 54.15C28.8506 53.9367 28.5506 53.83 28.1639 53.83C27.8573 53.83 27.5839 53.9067 27.3439 54.06C27.1039 54.2067 26.9173 54.4133 26.7839 54.68C26.6506 54.9467 26.5839 55.2533 26.5839 55.6C26.5839 55.9667 26.6906 56.2567 26.9039 56.47C27.1239 56.6833 27.4273 56.79 27.8139 56.79ZM33.8122 58.08C33.3456 58.08 32.9022 58.03 32.4822 57.93C32.0689 57.8233 31.7456 57.6867 31.5122 57.52L32.1122 56.39C32.3456 56.5433 32.6289 56.6667 32.9622 56.76C33.3022 56.8533 33.6422 56.9 33.9822 56.9C34.3356 56.9 34.5989 56.8567 34.7722 56.77C34.9456 56.6767 35.0322 56.5467 35.0322 56.38C35.0322 56.2467 34.9556 56.15 34.8022 56.09C34.6489 56.03 34.4022 55.9667 34.0622 55.9C33.6756 55.8267 33.3556 55.7467 33.1022 55.66C32.8556 55.5733 32.6389 55.4333 32.4522 55.24C32.2722 55.04 32.1822 54.77 32.1822 54.43C32.1822 53.8367 32.4289 53.3733 32.9222 53.04C33.4222 52.7067 34.0756 52.54 34.8822 52.54C35.2556 52.54 35.6189 52.58 35.9722 52.66C36.3256 52.74 36.6256 52.85 36.8722 52.99L36.3122 54.13C35.8722 53.8567 35.3422 53.72 34.7222 53.72C34.3822 53.72 34.1222 53.77 33.9422 53.87C33.7689 53.97 33.6822 54.0967 33.6822 54.25C33.6822 54.39 33.7589 54.4933 33.9122 54.56C34.0656 54.62 34.3222 54.6867 34.6822 54.76C35.0622 54.8333 35.3722 54.9133 35.6122 55C35.8589 55.08 36.0722 55.2167 36.2522 55.41C36.4322 55.6033 36.5222 55.8667 36.5222 56.2C36.5222 56.8 36.2689 57.2633 35.7622 57.59C35.2622 57.9167 34.6122 58.08 33.8122 58.08ZM38.2787 52.62H39.8287L38.7587 58H37.2087L38.2787 52.62ZM39.3187 51.87C39.0521 51.87 38.8321 51.7933 38.6587 51.64C38.4921 51.48 38.4087 51.2867 38.4087 51.06C38.4087 50.7933 38.5021 50.5733 38.6887 50.4C38.8821 50.22 39.1321 50.13 39.4387 50.13C39.7121 50.13 39.9321 50.2067 40.0987 50.36C40.2721 50.5067 40.3587 50.69 40.3587 50.91C40.3587 51.1967 40.2621 51.43 40.0687 51.61C39.8754 51.7833 39.6254 51.87 39.3187 51.87ZM46.0908 54.91C46.0908 55.1567 46.0608 55.43 46.0008 55.73H41.8808C41.9341 56.4633 42.3974 56.83 43.2708 56.83C43.5441 56.83 43.8041 56.7867 44.0508 56.7C44.3041 56.6133 44.5241 56.49 44.7108 56.33L45.3608 57.36C45.0608 57.6 44.7174 57.78 44.3308 57.9C43.9441 58.02 43.5374 58.08 43.1108 58.08C42.5574 58.08 42.0708 57.9833 41.6508 57.79C41.2374 57.59 40.9174 57.3067 40.6908 56.94C40.4708 56.5733 40.3608 56.15 40.3608 55.67C40.3608 55.0767 40.4941 54.5433 40.7608 54.07C41.0341 53.59 41.4108 53.2167 41.8908 52.95C42.3708 52.6767 42.9174 52.54 43.5308 52.54C44.0508 52.54 44.5008 52.6367 44.8808 52.83C45.2674 53.0233 45.5641 53.3 45.7708 53.66C45.9841 54.02 46.0908 54.4367 46.0908 54.91ZM43.4608 53.71C43.0941 53.71 42.7841 53.81 42.5308 54.01C42.2774 54.2033 42.0974 54.4733 41.9908 54.82H44.6608C44.6608 54.4733 44.5508 54.2033 44.3308 54.01C44.1174 53.81 43.8274 53.71 43.4608 53.71ZM48.5341 58.08C48.0674 58.08 47.6241 58.03 47.2041 57.93C46.7907 57.8233 46.4674 57.6867 46.2341 57.52L46.8341 56.39C47.0674 56.5433 47.3507 56.6667 47.6841 56.76C48.0241 56.8533 48.3641 56.9 48.7041 56.9C49.0574 56.9 49.3207 56.8567 49.4941 56.77C49.6674 56.6767 49.7541 56.5467 49.7541 56.38C49.7541 56.2467 49.6774 56.15 49.5241 56.09C49.3707 56.03 49.1241 55.9667 48.7841 55.9C48.3974 55.8267 48.0774 55.7467 47.8241 55.66C47.5774 55.5733 47.3607 55.4333 47.1741 55.24C46.9941 55.04 46.9041 54.77 46.9041 54.43C46.9041 53.8367 47.1507 53.3733 47.6441 53.04C48.1441 52.7067 48.7974 52.54 49.6041 52.54C49.9774 52.54 50.3407 52.58 50.6941 52.66C51.0474 52.74 51.3474 52.85 51.5941 52.99L51.0341 54.13C50.5941 53.8567 50.0641 53.72 49.4441 53.72C49.1041 53.72 48.8441 53.77 48.6641 53.87C48.4907 53.97 48.4041 54.0967 48.4041 54.25C48.4041 54.39 48.4807 54.4933 48.6341 54.56C48.7874 54.62 49.0441 54.6867 49.4041 54.76C49.7841 54.8333 50.0941 54.9133 50.3341 55C50.5807 55.08 50.7941 55.2167 50.9741 55.41C51.1541 55.6033 51.2441 55.8667 51.2441 56.2C51.2441 56.8 50.9907 57.2633 50.4841 57.59C49.9841 57.9167 49.3341 58.08 48.5341 58.08ZM54.0506 56.1C54.0372 56.1533 54.0306 56.2267 54.0306 56.32C54.0306 56.6667 54.2206 56.84 54.6006 56.84C54.8072 56.84 55.0172 56.7767 55.2306 56.65L55.4606 57.76C55.1139 57.9733 54.6672 58.08 54.1206 58.08C53.6139 58.08 53.2072 57.9467 52.9006 57.68C52.5939 57.4133 52.4406 57.0467 52.4406 56.58C52.4406 56.4467 52.4572 56.29 52.4906 56.11L52.9206 53.94H52.0906L52.3306 52.74H53.1606L53.4206 51.43H54.9806L54.7206 52.74H56.0606L55.8206 53.94H54.4806L54.0506 56.1ZM71.2863 51L67.5863 58H65.8563L65.2463 53.29L62.7163 58H60.9763L60.0863 51H61.6863L62.3063 55.92L64.9363 51H66.4363L67.0363 55.96L69.6763 51H71.2863ZM76.8543 52.62L75.7843 58H74.3043L74.4043 57.47C73.9576 57.8767 73.4076 58.08 72.7543 58.08C72.3343 58.08 71.9476 57.9833 71.5943 57.79C71.2409 57.5967 70.9576 57.32 70.7443 56.96C70.5376 56.5933 70.4343 56.1633 70.4343 55.67C70.4343 55.0767 70.5643 54.5433 70.8243 54.07C71.0909 53.59 71.4509 53.2167 71.9043 52.95C72.3576 52.6767 72.8576 52.54 73.4043 52.54C74.2309 52.54 74.8143 52.81 75.1543 53.35L75.2943 52.62H76.8543ZM73.2343 56.79C73.5409 56.79 73.8143 56.7167 74.0543 56.57C74.2943 56.4167 74.4809 56.2067 74.6143 55.94C74.7476 55.6733 74.8143 55.3667 74.8143 55.02C74.8143 54.6533 74.7043 54.3633 74.4843 54.15C74.2709 53.9367 73.9709 53.83 73.5843 53.83C73.2776 53.83 73.0043 53.9067 72.7643 54.06C72.5243 54.2067 72.3376 54.4133 72.2043 54.68C72.0709 54.9467 72.0043 55.2533 72.0043 55.6C72.0043 55.9667 72.1109 56.2567 72.3243 56.47C72.5443 56.6833 72.8476 56.79 73.2343 56.79ZM83.6826 52.62L80.1026 58.36C79.7159 58.9867 79.3392 59.42 78.9726 59.66C78.6126 59.9 78.1692 60.02 77.6426 60.02C77.3626 60.02 77.0892 59.9767 76.8226 59.89C76.5492 59.8033 76.3359 59.69 76.1826 59.55L76.9026 58.43C77.1426 58.65 77.4292 58.76 77.7626 58.76C77.9626 58.76 78.1359 58.71 78.2826 58.61C78.4292 58.51 78.5792 58.34 78.7326 58.1L78.7826 58.01L77.5426 52.62H79.1026L79.9026 56.28L82.1426 52.62H83.6826ZM88.8492 52.32H86.6092L86.8792 51H92.9792L92.7092 52.32H90.4792L89.3392 58H87.7192L88.8492 52.32ZM94.6579 58.08C94.1179 58.08 93.6413 57.98 93.2279 57.78C92.8213 57.58 92.5046 57.3 92.2779 56.94C92.0579 56.5733 91.9479 56.15 91.9479 55.67C91.9479 55.0767 92.0879 54.5433 92.3679 54.07C92.6479 53.5967 93.0346 53.2233 93.5279 52.95C94.0213 52.6767 94.5779 52.54 95.1979 52.54C95.7446 52.54 96.2213 52.64 96.6279 52.84C97.0346 53.04 97.3479 53.3233 97.5679 53.69C97.7946 54.05 97.9079 54.47 97.9079 54.95C97.9079 55.5433 97.7679 56.0767 97.4879 56.55C97.2146 57.0233 96.8279 57.3967 96.3279 57.67C95.8346 57.9433 95.2779 58.08 94.6579 58.08ZM94.7579 56.79C95.0579 56.79 95.3279 56.7167 95.5679 56.57C95.8079 56.4167 95.9946 56.2067 96.1279 55.94C96.2613 55.6733 96.3279 55.3667 96.3279 55.02C96.3279 54.6533 96.2213 54.3633 96.0079 54.15C95.7946 53.9367 95.4946 53.83 95.1079 53.83C94.8013 53.83 94.5279 53.9067 94.2879 54.06C94.0479 54.2067 93.8613 54.4133 93.7279 54.68C93.5946 54.9467 93.5279 55.2533 93.5279 55.6C93.5279 55.9667 93.6346 56.2567 93.8479 56.47C94.0679 56.6833 94.3713 56.79 94.7579 56.79ZM105.641 51C106.514 51 107.188 51.1933 107.661 51.58C108.141 51.96 108.381 52.4933 108.381 53.18C108.381 53.7667 108.241 54.28 107.961 54.72C107.688 55.1533 107.294 55.4867 106.781 55.72C106.274 55.9533 105.674 56.07 104.981 56.07H103.421L103.041 58H101.411L102.811 51H105.641ZM105.051 54.75C105.591 54.75 106.008 54.6267 106.301 54.38C106.594 54.1333 106.741 53.78 106.741 53.32C106.741 52.9867 106.628 52.7367 106.401 52.57C106.181 52.4033 105.861 52.32 105.441 52.32H104.171L103.681 54.75H105.051ZM115.102 52.62L114.032 58H112.552L112.652 57.47C112.205 57.8767 111.655 58.08 111.002 58.08C110.582 58.08 110.195 57.9833 109.842 57.79C109.488 57.5967 109.205 57.32 108.992 56.96C108.785 56.5933 108.682 56.1633 108.682 55.67C108.682 55.0767 108.812 54.5433 109.072 54.07C109.338 53.59 109.698 53.2167 110.152 52.95C110.605 52.6767 111.105 52.54 111.652 52.54C112.478 52.54 113.062 52.81 113.402 53.35L113.542 52.62H115.102ZM111.482 56.79C111.788 56.79 112.062 56.7167 112.302 56.57C112.542 56.4167 112.728 56.2067 112.862 55.94C112.995 55.6733 113.062 55.3667 113.062 55.02C113.062 54.6533 112.952 54.3633 112.732 54.15C112.518 53.9367 112.218 53.83 111.832 53.83C111.525 53.83 111.252 53.9067 111.012 54.06C110.772 54.2067 110.585 54.4133 110.452 54.68C110.318 54.9467 110.252 55.2533 110.252 55.6C110.252 55.9667 110.358 56.2567 110.572 56.47C110.792 56.6833 111.095 56.79 111.482 56.79ZM117.48 58.08C117.013 58.08 116.57 58.03 116.15 57.93C115.737 57.8233 115.413 57.6867 115.18 57.52L115.78 56.39C116.013 56.5433 116.297 56.6667 116.63 56.76C116.97 56.8533 117.31 56.9 117.65 56.9C118.003 56.9 118.267 56.8567 118.44 56.77C118.613 56.6767 118.7 56.5467 118.7 56.38C118.7 56.2467 118.623 56.15 118.47 56.09C118.317 56.03 118.07 55.9667 117.73 55.9C117.343 55.8267 117.023 55.7467 116.77 55.66C116.523 55.5733 116.307 55.4333 116.12 55.24C115.94 55.04 115.85 54.77 115.85 54.43C115.85 53.8367 116.097 53.3733 116.59 53.04C117.09 52.7067 117.743 52.54 118.55 52.54C118.923 52.54 119.287 52.58 119.64 52.66C119.993 52.74 120.293 52.85 120.54 52.99L119.98 54.13C119.54 53.8567 119.01 53.72 118.39 53.72C118.05 53.72 117.79 53.77 117.61 53.87C117.437 53.97 117.35 54.0967 117.35 54.25C117.35 54.39 117.427 54.4933 117.58 54.56C117.733 54.62 117.99 54.6867 118.35 54.76C118.73 54.8333 119.04 54.9133 119.28 55C119.527 55.08 119.74 55.2167 119.92 55.41C120.1 55.6033 120.19 55.8667 120.19 56.2C120.19 56.8 119.937 57.2633 119.43 57.59C118.93 57.9167 118.28 58.08 117.48 58.08ZM122.837 58.08C122.37 58.08 121.927 58.03 121.507 57.93C121.093 57.8233 120.77 57.6867 120.537 57.52L121.137 56.39C121.37 56.5433 121.653 56.6667 121.987 56.76C122.327 56.8533 122.667 56.9 123.007 56.9C123.36 56.9 123.623 56.8567 123.797 56.77C123.97 56.6767 124.057 56.5467 124.057 56.38C124.057 56.2467 123.98 56.15 123.827 56.09C123.673 56.03 123.427 55.9667 123.087 55.9C122.7 55.8267 122.38 55.7467 122.127 55.66C121.88 55.5733 121.663 55.4333 121.477 55.24C121.297 55.04 121.207 54.77 121.207 54.43C121.207 53.8367 121.453 53.3733 121.947 53.04C122.447 52.7067 123.1 52.54 123.907 52.54C124.28 52.54 124.643 52.58 124.997 52.66C125.35 52.74 125.65 52.85 125.897 52.99L125.337 54.13C124.897 53.8567 124.367 53.72 123.747 53.72C123.407 53.72 123.147 53.77 122.967 53.87C122.793 53.97 122.707 54.0967 122.707 54.25C122.707 54.39 122.783 54.4933 122.937 54.56C123.09 54.62 123.347 54.6867 123.707 54.76C124.087 54.8333 124.397 54.9133 124.637 55C124.883 55.08 125.097 55.2167 125.277 55.41C125.457 55.6033 125.547 55.8667 125.547 56.2C125.547 56.8 125.293 57.2633 124.787 57.59C124.287 57.9167 123.637 58.08 122.837 58.08ZM130.609 51H132.239L130.839 58H129.209L130.609 51ZM134.554 56.1C134.541 56.1533 134.534 56.2267 134.534 56.32C134.534 56.6667 134.724 56.84 135.104 56.84C135.311 56.84 135.521 56.7767 135.734 56.65L135.964 57.76C135.618 57.9733 135.171 58.08 134.624 58.08C134.118 58.08 133.711 57.9467 133.404 57.68C133.098 57.4133 132.944 57.0467 132.944 56.58C132.944 56.4467 132.961 56.29 132.994 56.11L133.424 53.94H132.594L132.834 52.74H133.664L133.924 51.43H135.484L135.224 52.74H136.564L136.324 53.94H134.984L134.554 56.1ZM142.55 52.3L142.25 53.82H145.5L145.25 55.08H141.99L141.67 56.7H145.49L145.22 58H139.8L141.2 51H146.49L146.22 52.3H142.55ZM150.025 55.31L151.525 58H149.875L148.995 56.35L147.445 58H145.665L148.355 55.24L146.925 52.62H148.545L149.395 54.2L150.895 52.62H152.615L150.025 55.31ZM158.74 52.62L157.67 58H156.19L156.29 57.47C155.843 57.8767 155.293 58.08 154.64 58.08C154.22 58.08 153.833 57.9833 153.48 57.79C153.127 57.5967 152.843 57.32 152.63 56.96C152.423 56.5933 152.32 56.1633 152.32 55.67C152.32 55.0767 152.45 54.5433 152.71 54.07C152.977 53.59 153.337 53.2167 153.79 52.95C154.243 52.6767 154.743 52.54 155.29 52.54C156.117 52.54 156.7 52.81 157.04 53.35L157.18 52.62H158.74ZM155.12 56.79C155.427 56.79 155.7 56.7167 155.94 56.57C156.18 56.4167 156.367 56.2067 156.5 55.94C156.633 55.6733 156.7 55.3667 156.7 55.02C156.7 54.6533 156.59 54.3633 156.37 54.15C156.157 53.9367 155.857 53.83 155.47 53.83C155.163 53.83 154.89 53.9067 154.65 54.06C154.41 54.2067 154.223 54.4133 154.09 54.68C153.957 54.9467 153.89 55.2533 153.89 55.6C153.89 55.9667 153.997 56.2567 154.21 56.47C154.43 56.6833 154.733 56.79 155.12 56.79ZM166.978 52.54C167.565 52.54 168.032 52.7 168.378 53.02C168.725 53.3333 168.898 53.78 168.898 54.36C168.898 54.5733 168.875 54.7933 168.828 55.02L168.238 58H166.678L167.248 55.13C167.275 54.9967 167.288 54.86 167.288 54.72C167.288 54.4467 167.215 54.24 167.068 54.1C166.928 53.96 166.718 53.89 166.438 53.89C165.685 53.89 165.215 54.34 165.028 55.24L164.478 58H162.918L163.488 55.13C163.515 54.9967 163.528 54.8633 163.528 54.73C163.528 54.4567 163.455 54.25 163.308 54.11C163.168 53.9633 162.958 53.89 162.678 53.89C161.925 53.89 161.452 54.3467 161.258 55.26L160.718 58H159.158L160.228 52.62H161.708L161.588 53.18C162.055 52.7533 162.618 52.54 163.278 52.54C163.652 52.54 163.982 52.6167 164.268 52.77C164.562 52.9167 164.782 53.1333 164.928 53.42C165.188 53.1333 165.492 52.9167 165.838 52.77C166.185 52.6167 166.565 52.54 166.978 52.54ZM171.651 58.08C171.184 58.08 170.741 58.03 170.321 57.93C169.907 57.8233 169.584 57.6867 169.351 57.52L169.951 56.39C170.184 56.5433 170.467 56.6667 170.801 56.76C171.141 56.8533 171.481 56.9 171.821 56.9C172.174 56.9 172.437 56.8567 172.611 56.77C172.784 56.6767 172.871 56.5467 172.871 56.38C172.871 56.2467 172.794 56.15 172.641 56.09C172.487 56.03 172.241 55.9667 171.901 55.9C171.514 55.8267 171.194 55.7467 170.941 55.66C170.694 55.5733 170.477 55.4333 170.291 55.24C170.111 55.04 170.021 54.77 170.021 54.43C170.021 53.8367 170.267 53.3733 170.761 53.04C171.261 52.7067 171.914 52.54 172.721 52.54C173.094 52.54 173.457 52.58 173.811 52.66C174.164 52.74 174.464 52.85 174.711 52.99L174.151 54.13C173.711 53.8567 173.181 53.72 172.561 53.72C172.221 53.72 171.961 53.77 171.781 53.87C171.607 53.97 171.521 54.0967 171.521 54.25C171.521 54.39 171.597 54.4933 171.751 54.56C171.904 54.62 172.161 54.6867 172.521 54.76C172.901 54.8333 173.211 54.9133 173.451 55C173.697 55.08 173.911 55.2167 174.091 55.41C174.271 55.6033 174.361 55.8667 174.361 56.2C174.361 56.8 174.107 57.2633 173.601 57.59C173.101 57.9167 172.451 58.08 171.651 58.08Z" fill="white"/>
<path fill-rule="evenodd" clip-rule="evenodd" d="M67.9277 19.0238C61.8575 10.6631 52.0051 5.22657 40.883 5.22657C22.4375 5.22657 7.48438 20.1796 7.48438 38.6252C7.48438 44.9895 9.26449 50.938 12.354 56C8.35707 50.4949 6 43.722 6 36.3986C6 17.9531 20.9531 3 39.3986 3C51.4799 3 62.0629 9.41465 67.9277 19.0238Z" fill="#2E97E1"/>
</svg>
