<svg width="341" height="42" viewBox="0 0 341 42" fill="none" xmlns="http://www.w3.org/2000/svg">
<path d="M214.099 21.7399V9.15845H190.709V18.8966L191.588 16.899H193.071L193.566 18.0781V16.899H195.379L195.928 18.0781L196.464 16.899H202.864C203.111 16.899 203.454 16.9822 203.606 17.2596V16.899H204.952V17.3291C205.116 17.0931 205.377 16.899 205.899 16.899H208.632L209.127 18.0504V16.899H210.747L211.31 17.8976V16.899H212.794V20.5889H211.2L210.541 19.493V20.5889H208.522L208.206 19.8676H207.561L207.259 20.5889H205.995C205.721 20.5612 205.089 20.4503 204.952 20.0203V20.5889H202.521V19.7704C202.521 19.6595 202.411 19.5207 202.273 19.5207H202.012V20.5887H196.848V19.7565L196.45 20.5887H195.406L195.008 19.7425V20.5887H192.934L192.659 19.9229H192L191.711 20.5887H190.709V32.4767H214.099V25.194C213.975 25.3329 213.769 25.4438 213.467 25.4438H211.517V25.1664C211.365 25.3329 211.16 25.4438 210.816 25.4438H205.309V24.6667C205.295 24.5697 205.35 24.3616 205.075 24.3616H204.842V25.444H203.386V24.1953C203.235 24.4451 202.905 24.4592 202.685 24.4728H201.916V25.444H199.966L199.403 24.7502L198.798 25.444H195.475V21.7399H198.853L199.43 22.42L200.035 21.7399H202.699C202.892 21.7538 203.249 21.851 203.386 22.0454V21.7399H205.652C205.858 21.7399 206.243 21.8373 206.408 22.1008V21.7399H209.264V22.0731C209.415 21.865 209.649 21.7399 210.019 21.7399H211.846V22.0591C211.984 21.851 212.341 21.7399 212.561 21.7399H214.099Z" fill="#00ACEC"/>
<path d="M228.464 23.9871L220.031 32.4768H221.226L228.464 25.1941V23.9871V23.9871Z" fill="#33348E"/>
<path d="M228.465 26.3595L222.395 32.4768H223.589L228.465 27.5661V26.3595V26.3595Z" fill="#00ACEC"/>
<path d="M228.466 28.7314L224.744 32.4767H225.953L228.466 29.9385V28.7314V28.7314Z" fill="#33A457"/>
<path fill-rule="evenodd" clip-rule="evenodd" d="M189.473 7.89612H209.676H229.838V33.7668H189.473V7.89612ZM189.941 33.309H229.413H229.414V8.3679H189.941V33.309Z" fill="#00ACEC"/>
<path fill-rule="evenodd" clip-rule="evenodd" d="M215.225 31.3672C215.225 30.7705 215.706 30.299 216.296 30.299C216.576 30.299 216.845 30.4116 217.043 30.6119C217.242 30.8122 217.353 31.0839 217.353 31.3672C217.353 31.9492 216.873 32.4349 216.296 32.4349C215.706 32.4349 215.225 31.9494 215.225 31.3672ZM215.362 31.3674C215.362 31.8801 215.774 32.2966 216.296 32.3105C216.804 32.3105 217.216 31.8801 217.216 31.3674C217.216 30.84 216.804 30.4238 216.296 30.4238C215.774 30.4238 215.362 30.84 215.362 31.3674Z" fill="#00ACEC"/>
<path fill-rule="evenodd" clip-rule="evenodd" d="M195.077 17.329L195.914 19.2294L196.753 17.329H197.852V20.1588H197.165V18.0919L196.231 20.1588H195.599L194.679 18.0503V20.1588H193.291L193.017 19.5208H191.643L191.382 20.1588H190.654L191.876 17.329H192.783L193.992 20.0479V17.329H195.077ZM216.832 31.0758C216.832 30.9789 216.791 30.8817 216.709 30.8261C216.613 30.7708 216.516 30.7708 216.42 30.7708H215.898V31.9638H216.049V31.4088H216.31L216.653 31.9638H216.818L216.461 31.4088C216.667 31.4086 216.832 31.3116 216.832 31.0758ZM216.297 31.2979H216.049V30.8675H216.379C216.53 30.8675 216.695 30.8952 216.695 31.0756C216.695 31.2995 216.485 31.2986 216.323 31.298L216.297 31.2979ZM192.33 18.9104H191.918L192.33 17.9254V17.9531L192.756 18.9102H192.33V18.9104ZM202.754 17.329C203.098 17.329 203.579 17.4817 203.579 18.0782C203.579 18.4246 203.483 18.6746 203.111 18.8692C203.427 18.9106 203.551 19.1187 203.551 19.5765L203.578 20.159H202.906L202.892 19.6319C202.892 19.3959 202.796 19.1601 202.548 19.1601H201.656V20.1588H200.969V17.329H202.754ZM202.508 18.5774H201.656V17.9394H202.508C202.796 17.9394 202.892 18.1198 202.892 18.2584C202.892 18.4525 202.796 18.5774 202.508 18.5774ZM204.621 20.1588H203.935V17.329H204.621V20.1588ZM211.71 17.329V19.285L210.542 17.329H209.526V19.9784L208.345 17.329H207.438L206.49 19.5208C206.49 19.5208 206.147 19.5208 206.106 19.507C205.886 19.4793 205.625 19.2573 205.625 18.7578C205.625 18.0919 205.982 17.9394 206.435 17.9394H206.861V17.329H205.968C205.653 17.329 204.966 17.5648 204.952 18.7299C204.925 19.5068 205.268 20.1588 206.037 20.1588H206.944L207.205 19.5208H208.578L208.853 20.1588H210.213V18.0919L211.449 20.1588H212.397V17.329H211.71ZM207.479 18.9104H207.905V18.9102H208.317L207.905 17.9531L207.891 17.9254L207.479 18.9104ZM198.318 20.1588H200.571V19.5624H199.005V19.0073H200.53V18.4663H199.005V17.9394H200.571V17.329H198.318V20.1588ZM210.509 23.2738L210.509 23.2738C210.608 23.2769 210.701 23.2798 210.72 23.2798C211.572 23.3216 211.64 23.7513 211.64 24.2094C211.64 24.7367 211.215 25.0137 210.761 25.0137H209.319V24.4175H210.446C210.638 24.4175 210.912 24.4175 210.912 24.1401C210.912 24.0154 210.871 23.932 210.665 23.9043C210.569 23.8901 210.239 23.8766 210.184 23.8766C209.429 23.8625 209.25 23.4739 209.25 23.0028C209.25 22.4754 209.621 22.1839 210.061 22.1839H211.517V22.7943H210.459C210.438 22.7943 210.418 22.7941 210.397 22.7939C210.17 22.7918 209.951 22.7897 209.951 23.044C209.951 23.2105 210.075 23.2523 210.239 23.2663C210.269 23.2663 210.393 23.2701 210.508 23.2737L210.509 23.2737L210.509 23.2738L210.509 23.2738ZM213.302 23.2798C213.283 23.2798 213.19 23.2769 213.09 23.2737C212.975 23.2701 212.851 23.2663 212.822 23.2663C212.657 23.2523 212.533 23.2105 212.533 23.044C212.533 22.7896 212.753 22.7918 212.969 22.7939C212.989 22.7941 213.008 22.7943 213.028 22.7943H214.085V22.1839H212.643C212.19 22.1839 211.819 22.4754 211.819 23.0028C211.819 23.4739 211.997 23.8625 212.767 23.8766C212.822 23.8766 213.151 23.8901 213.247 23.9043C213.44 23.932 213.494 24.0154 213.494 24.1401C213.494 24.4175 213.206 24.4175 213.014 24.4175H211.888V25.0137H213.343C213.797 25.0137 214.222 24.7367 214.222 24.2094C214.222 23.7513 214.154 23.3216 213.302 23.2798ZM200.199 22.1839H202.617C202.96 22.1839 203.454 22.3504 203.454 23.044C203.454 24.0429 202.795 24.0564 202.438 24.0564H201.518V25.0137H200.199L199.389 24.0706L198.565 25.0002H195.928V22.1839H198.647L199.416 23.0581L200.199 22.1839ZM198.194 24.4175H196.628V23.849H198.139V23.3216H196.628V22.7943H198.194L198.963 23.5574L198.194 24.4175ZM200.337 24.154L200.831 24.7367V22.4615L200.337 23.0165L199.842 23.5574L200.337 24.154ZM202.37 23.4739H201.518V22.7943H202.37C202.658 22.7943 202.755 22.9747 202.755 23.1135C202.755 23.3074 202.659 23.4739 202.37 23.4739ZM205.57 22.1839C205.9 22.1839 206.394 22.3366 206.394 22.947C206.394 23.2798 206.298 23.5437 205.913 23.7237C206.243 23.7653 206.367 23.9734 206.367 24.431L206.394 25.0137H205.721L205.707 24.5005C205.694 24.251 205.598 24.0152 205.364 24.0152H204.458V25.0137H203.771V22.1839H205.57ZM205.323 23.4325H204.458V22.794H205.323C205.611 22.794 205.707 22.9745 205.707 23.1133C205.708 23.3074 205.598 23.4325 205.323 23.4325ZM208.976 25.0002H206.737V22.1839H208.976V22.7943H207.424V23.3216H208.935V23.849H207.424V24.4175H208.976V25.0002ZM217.038 22.4473C216.461 22.4473 216.351 21.9897 216.351 21.5042C216.351 20.8385 216.598 20.4918 216.982 20.4918C217.34 20.4918 217.573 20.6999 217.601 21.0603H218.672C218.59 20.1727 217.999 19.6456 216.941 19.6456C215.98 19.6456 215.225 20.3392 215.225 21.463C215.225 22.6003 215.911 23.2939 217.051 23.2939C217.958 23.2939 218.603 22.7531 218.7 21.8651H217.615C217.573 22.1978 217.394 22.4473 217.038 22.4473ZM220.265 20.6166C221.46 20.6166 221.529 21.0603 221.529 21.657H221.529V22.8361C221.529 22.9888 221.543 23.1137 221.584 23.2107H220.691L220.582 22.9472C220.444 23.0858 220.293 23.1688 220.128 23.2246C219.977 23.2665 219.826 23.28 219.647 23.28C219.167 23.28 218.755 23.0442 218.755 22.5173C218.755 21.8304 219.397 21.7505 219.908 21.6869C219.985 21.6773 220.059 21.6681 220.128 21.6572C220.361 21.6156 220.54 21.5737 220.54 21.4214C220.54 21.241 220.307 21.2133 220.211 21.2133C220.183 21.2133 220.155 21.2133 220.128 21.2268C220.005 21.2268 219.881 21.2826 219.853 21.463H218.906C218.906 20.9496 219.249 20.6443 220.128 20.6166H220.265ZM220.128 22.7112H220.045C219.839 22.7112 219.729 22.6278 219.729 22.5031C219.729 22.295 219.908 22.2534 220.128 22.212L220.164 22.2045C220.292 22.1788 220.427 22.1513 220.54 22.1009C220.54 22.5308 220.416 22.6836 220.128 22.7112ZM222.642 20.6859V21.1989C222.779 20.7969 223.026 20.6166 223.411 20.6164C223.452 20.6164 223.507 20.6164 223.548 20.6304V21.4763H223.342C222.93 21.4763 222.724 21.6705 222.724 22.2118V23.2102H221.735V20.6859H222.642ZM225.43 19.7426V20.9357C225.306 20.7969 225.183 20.7136 225.032 20.6585C224.936 20.6308 224.812 20.6169 224.674 20.6169C224.084 20.6169 223.617 21.1579 223.617 21.9901C223.617 22.7117 224.001 23.2802 224.757 23.2802C224.853 23.2802 224.949 23.2802 225.032 23.2525C225.224 23.1972 225.361 23.086 225.526 22.8779V23.2107H226.419V19.7426H225.43ZM225.004 22.5585H225.032C225.362 22.5447 225.458 22.2532 225.458 21.9764C225.458 21.6988 225.362 21.3937 225.032 21.3937C224.702 21.3937 224.62 21.7125 224.62 21.9899C224.62 22.2534 224.675 22.5585 225.004 22.5585Z" fill="#00ACEC"/>
<path d="M283.623 0.118774C284.49 0.276448 285.983 1.29225 285.983 2.15651V39.5022C285.983 40.3667 284.806 41.5399 283.94 41.5399H254.577C253.631 41.5399 252.533 40.4577 252.533 39.5022V2.47185C252.533 1.6076 253.869 0.276448 254.735 0.118774H283.623Z" fill="#AD338E"/>
<path d="M273.146 15.4574C275.383 18.8828 274.412 23.4681 270.977 25.6988C267.541 27.9296 262.942 26.9609 260.705 23.5353L262.838 22.1065C264.29 24.3309 267.277 24.9595 269.507 23.5115C271.738 22.0629 272.369 19.0853 270.916 16.8611L273.146 15.4574V15.4574Z" fill="white"/>
<path d="M278.11 12.3134C275.868 8.89101 271.268 7.92847 267.836 10.1635C264.403 12.3985 263.438 16.9851 265.68 20.4075L267.851 19.0377C266.396 16.8154 267.022 13.8371 269.252 12.3855C271.48 10.9342 274.467 11.5592 275.923 13.7817L278.11 12.3134Z" fill="#0B1129"/>
<path fill-rule="evenodd" clip-rule="evenodd" d="M269.258 3.57764C261.472 3.57764 255.16 9.87136 255.16 17.6344C255.16 25.3973 261.472 31.6908 269.258 31.6908C277.044 31.6908 283.356 25.3973 283.356 17.6344C283.356 9.87113 277.044 3.57764 269.258 3.57764ZM282.369 17.6344C282.369 24.8541 276.499 30.7066 269.258 30.7066C262.017 30.7066 256.147 24.8541 256.147 17.6344C256.147 10.4149 262.017 4.56186 269.258 4.56186C276.499 4.56186 282.369 10.4149 282.369 17.6344ZM270.878 34.681H271.78L271.037 38.011H273.463L273.293 38.7609H269.965L270.878 34.681ZM262.364 38.2634C261.638 38.2865 260.899 37.8625 260.719 37.5177L260.055 37.9042C260.359 38.4562 261.024 38.8976 262.159 38.9528C263.64 39.0251 264.259 38.1877 264.33 37.4797C264.378 36.9978 263.873 36.4307 263.269 36.3621L261.959 36.1908C261.405 36.1248 261.391 35.9591 261.448 35.6954C261.527 35.323 262.048 35.1684 262.435 35.1443C262.988 35.1099 263.456 35.1408 263.973 35.5485L264.598 35.1719C264.245 34.6958 263.49 34.4978 262.599 34.5099C261.589 34.524 260.648 35.1036 260.614 35.8526C260.589 36.4003 260.766 36.8436 261.866 36.99L262.901 37.1024C263.528 37.1782 263.482 37.5 263.46 37.6485L263.459 37.6558C263.407 38.0223 263.132 38.2393 262.364 38.2634ZM265.092 36.7015C265.268 35.4715 266.41 34.4745 267.644 34.4745C268.877 34.4745 269.735 35.4715 269.559 36.7015C269.383 37.9315 268.24 38.9285 267.007 38.9285C265.773 38.9285 264.916 37.9313 265.092 36.7015ZM268.778 36.7012C268.663 37.5005 267.921 38.1486 267.119 38.1486C266.317 38.1486 265.76 37.5005 265.874 36.7012C265.988 35.9016 266.731 35.2534 267.533 35.2534C268.335 35.2534 268.892 35.9016 268.778 36.7012ZM273.994 36.7015C274.17 35.4715 275.312 34.4745 276.546 34.4745C277.78 34.4745 278.637 35.4715 278.461 36.7015C278.285 37.9315 277.143 38.9285 275.909 38.9285C274.675 38.9285 273.818 37.9313 273.994 36.7015ZM277.679 36.7012C277.565 37.5005 276.822 38.1486 276.02 38.1486C275.218 38.1486 274.661 37.5005 274.775 36.7012C274.89 35.9016 275.633 35.2534 276.434 35.2534C277.236 35.2534 277.793 35.9016 277.679 36.7012Z" fill="white"/>
<path fill-rule="evenodd" clip-rule="evenodd" d="M336.674 4.06753C338.373 5.68633 339.279 7.56075 339.706 10.3355C340.113 12.9858 340.087 16.4469 340.05 21.235L340.05 21.253L340.047 21.6235L340.038 22.7906L340.038 22.7911C339.975 31.6907 339.946 35.7525 336.599 38.9387C334.012 41.4126 328.439 41.6989 324.472 41.6989C320.505 41.6989 314.932 41.4126 312.346 38.9391C308.998 35.7525 308.969 31.6907 308.906 22.7909L308.906 22.7906L308.897 21.6235L308.894 21.253L308.894 21.2522C308.857 16.4549 308.831 12.9887 309.238 10.3353C309.665 7.56054 310.571 5.68611 312.269 4.06775C314.857 1.59378 320.473 1.3075 324.472 1.3075C328.471 1.3075 334.087 1.59378 336.674 4.06753ZM339.291 21.6174L339.294 21.2469L339.294 21.2464C339.367 11.684 339.398 7.72585 336.161 4.64138C333.769 2.35373 328.344 2.08904 324.472 2.08904C320.6 2.08904 315.176 2.35351 312.783 4.6416C309.546 7.72591 309.577 11.6842 309.65 21.2469L309.653 21.6174L309.662 22.785C309.726 31.7128 309.752 35.4079 312.858 38.365C315.251 40.6529 320.632 40.9178 324.472 40.9178C328.312 40.9178 333.693 40.6531 336.086 38.365C339.192 35.4079 339.219 31.7128 339.282 22.785L339.291 21.6174Z" fill="#E7C63D"/>
<path d="M328.404 8.49539C329.047 7.71406 329.992 7.28442 331.126 7.28442H335.209V25.566C335.209 27.324 333.545 29.0428 331.844 29.0428H327.648V27.6364C327.005 28.4566 326.022 29.0428 325.039 29.0428H320.844V27.6364C320.201 28.4566 319.218 29.0428 318.235 29.0428H314.039V10.8392C314.039 8.69078 315.513 7.28442 317.517 7.28442H321.6V8.49539C322.242 7.71406 323.187 7.28442 324.321 7.28442H328.404V8.49539Z" fill="#E7C63D"/>
<path d="M314.795 28.2615H318.235C319.445 28.2615 320.843 27.0896 320.843 25.5662V8.0658H317.517C315.967 8.0658 314.795 9.08138 314.795 10.8392V28.2615Z" fill="#009FE1"/>
<path d="M321.6 28.2615H325.04C326.249 28.2615 327.648 27.0896 327.648 25.5662V8.0658H324.321C322.772 8.0658 321.6 9.08138 321.6 10.8392V28.2615Z" fill="#CC2229"/>
<path d="M328.404 28.2615H331.844C333.054 28.2615 334.453 27.0896 334.453 25.5662V8.0658H331.126C329.576 8.0658 328.404 9.08138 328.404 10.8392V28.2615V28.2615Z" fill="#33A457"/>
<path d="M315.74 18.6518H314.795C315.06 19.7455 316.307 20.605 317.706 20.605C318.991 20.605 320.73 19.8628 320.73 18.4564V15.9172H318.575V18.4564C318.575 19.1987 318.008 19.7846 317.214 19.7846C316.496 19.7846 315.853 19.3159 315.74 18.6518Z" fill="white"/>
<path fill-rule="evenodd" clip-rule="evenodd" d="M314.18 32.5152C314.259 32.9727 314.701 33.2953 315.196 33.2953C315.743 33.2953 316.134 32.8918 316.134 32.3803V30.6311H317.618V32.3803C317.618 33.3493 316.42 33.8607 315.535 33.8607C314.571 33.8607 313.712 33.2687 313.529 32.5152H314.18ZM321.968 33.0803V33.5917H319.468C318.686 33.5917 318.035 32.9188 318.035 32.1113C318.035 31.3038 318.686 30.6313 319.468 30.6313H321.968V31.1693C321.369 31.0348 320.796 30.9539 320.51 30.9539C319.884 30.9539 319.389 31.4653 319.389 32.1113C319.389 32.7573 319.884 33.2687 320.51 33.2687C320.796 33.2687 321.369 33.2148 321.968 33.0803ZM326.344 32.8648C326.344 32.4613 326.006 32.1383 325.562 32.1383C325.953 32.1383 326.292 31.7883 326.292 31.3846C326.292 30.9806 325.953 30.6311 325.562 30.6311H322.281V33.5917H325.562C326.006 33.5917 326.344 33.2687 326.344 32.8648ZM323.531 33.2687H324.573C324.833 33.2687 325.068 33.0263 325.068 32.7573C325.068 32.4882 324.833 32.2458 324.573 32.2458H323.531V33.2687ZM323.531 31.9766V30.9536H324.547C324.807 30.9536 325.042 31.1961 325.042 31.4651C325.042 31.7345 324.807 31.9766 324.547 31.9766H323.531Z" fill="#0B1129"/>
<path fill-rule="evenodd" clip-rule="evenodd" d="M333.319 20.2142C333.962 20.2142 334.453 19.7455 334.453 19.1596C334.453 18.5736 333.962 18.1049 333.319 18.1047C333.886 18.1047 334.378 17.5967 334.378 17.011C334.378 16.4252 333.886 15.9172 333.319 15.9172H328.556V20.2142H333.319ZM331.845 17.8705H330.37V16.386H331.845C332.222 16.386 332.563 16.7374 332.563 17.1282C332.563 17.519 332.222 17.8705 331.845 17.8705ZM331.882 19.7455C332.26 19.7455 332.601 19.3941 332.601 19.0033C332.601 18.6127 332.26 18.261 331.882 18.261H330.37V19.7453H331.882V19.7455ZM327.498 20.2145V19.4723C326.628 19.6674 325.796 19.7456 325.381 19.7458C324.473 19.7458 323.755 19.0038 323.755 18.0661C323.755 17.1287 324.473 16.3864 325.381 16.3864C325.796 16.3864 326.628 16.5034 327.498 16.6988V15.9175H323.868C322.734 15.9175 321.789 16.894 321.789 18.0659C321.789 19.238 322.734 20.2145 323.868 20.2145H327.498Z" fill="white"/>
<path fill-rule="evenodd" clip-rule="evenodd" d="M335.515 28.8884C335.515 28.8294 335.501 28.7746 335.451 28.7403C335.409 28.7137 335.348 28.7124 335.3 28.7124H335.033V29.285H335.142V29.0429H335.25L335.372 29.285H335.499L335.364 29.0429C335.462 29.036 335.515 28.9924 335.515 28.8884ZM327.973 32.5554C327.973 32.7989 327.985 33.1988 328.251 33.1988C328.435 33.1988 328.441 32.8347 328.445 32.6127C328.445 32.5769 328.446 32.5448 328.447 32.5185H328.838L328.835 32.5638L328.835 32.5639L328.835 32.5639L328.835 32.5639L328.835 32.5639L328.835 32.5639L328.835 32.5639L328.835 32.5639L328.835 32.5639C328.833 32.6063 328.831 32.6488 328.829 32.6914C328.811 33.2316 328.684 33.6439 328.251 33.6439C327.615 33.6439 327.574 33.0666 327.574 32.279V31.8587C327.588 31.1039 327.632 30.543 328.251 30.543C328.598 30.5514 328.791 30.8032 328.817 31.3058L328.818 31.3191C328.823 31.3926 328.828 31.4626 328.826 31.5327H328.444C328.442 31.5036 328.44 31.4707 328.438 31.4356L328.438 31.4356C328.427 31.2428 328.412 30.9884 328.251 30.9884C327.968 30.9884 327.971 31.4366 327.973 31.6841L327.973 31.7348V32.5554ZM328.985 33.574L329.479 30.6134H330.002L330.474 33.574H330.057L329.956 32.8233H329.502L329.398 33.574H328.985ZM329.563 32.3909L329.678 31.5497C329.693 31.4474 329.7 31.3495 329.708 31.2497L329.708 31.2496C329.71 31.2126 329.713 31.1753 329.716 31.1374C329.719 31.0711 329.725 31.0055 329.731 30.9392H329.736L329.738 30.9544C329.743 31.0155 329.748 31.0762 329.751 31.1374C329.754 31.1746 329.756 31.2113 329.759 31.2478L329.759 31.2478C329.766 31.3482 329.773 31.4468 329.788 31.5497L329.895 32.3909H329.563ZM331.685 32.0485C331.913 32.0893 331.983 32.2998 331.983 32.5843L331.982 32.6202V32.6202C331.981 32.8079 331.978 33.4401 332.066 33.5209V33.5744H331.638C331.6 33.4192 331.6 33.1483 331.599 32.9464C331.599 32.9014 331.599 32.8598 331.598 32.8238L331.598 32.7946C331.595 32.6169 331.591 32.3919 331.465 32.3371C331.369 32.2994 331.263 32.2997 331.162 32.2999L331.135 32.3H331.066V33.5742H330.679V30.6136H331.413C331.748 30.6136 332.003 30.7783 332.003 31.3224C332.003 31.6484 331.945 31.9865 331.685 32.04V32.0485ZM331.372 31.8628H331.066V31.0461H331.355C331.502 31.0504 331.598 31.108 331.598 31.4381C331.598 31.7348 331.5 31.8544 331.372 31.8628ZM332.387 30.6134H333.194C333.289 30.6134 333.477 30.6712 333.595 30.9476C333.685 31.1538 333.711 31.4835 333.711 31.9701C333.711 32.5554 333.711 33.2316 333.39 33.4956C333.306 33.5656 333.2 33.574 333.104 33.574H332.387V30.6134ZM332.942 33.1409H332.775V31.0461H333.029C333.261 31.0461 333.312 31.3222 333.312 32.0234C333.313 32.8812 333.29 33.1409 332.942 33.1409ZM334.638 31.6853C334.766 31.8008 335.002 32.0234 335.109 32.172C335.243 32.3574 335.283 32.5351 335.283 32.7907C335.283 33.3516 335.023 33.6442 334.644 33.6442C334.179 33.6442 334.014 33.273 334.014 32.7452V32.5267H334.401V32.7C334.393 32.9885 334.453 33.199 334.644 33.199C334.809 33.199 334.884 33.0753 334.884 32.8527C334.884 32.6795 334.829 32.5597 334.731 32.461C334.663 32.3851 334.59 32.3166 334.517 32.2479L334.517 32.2479C334.371 32.1112 334.224 31.9738 334.118 31.7762C334.054 31.6441 334.019 31.4835 334.019 31.3224C334.019 30.8198 334.219 30.5432 334.627 30.5432C335.224 30.5432 335.229 31.1738 335.231 31.481L335.231 31.5126H334.858C334.861 31.2486 334.843 30.9884 334.63 30.9884C334.499 30.9884 334.419 31.0629 334.419 31.265C334.419 31.4913 334.517 31.5781 334.638 31.6851L334.638 31.6853ZM335.142 28.9565H335.302C335.363 28.9583 335.407 28.9441 335.407 28.8713C335.407 28.7968 335.328 28.7968 335.275 28.7968H335.142V28.9565Z" fill="#0B1129"/>
<path fill-rule="evenodd" clip-rule="evenodd" d="M334.73 28.9951C334.732 28.7031 334.961 28.4672 335.244 28.4677C335.526 28.4678 335.755 28.7036 335.755 28.9951C335.755 29.2876 335.526 29.5247 335.243 29.5247C334.96 29.5247 334.73 29.2876 334.73 28.9951ZM334.828 28.9963C334.828 29.2332 335.014 29.4253 335.244 29.4253C335.473 29.4253 335.658 29.2345 335.658 28.9948C335.658 28.7588 335.473 28.5673 335.244 28.5673C335.014 28.5673 334.828 28.7594 334.828 28.9963Z" fill="#0B1129"/>
<path fill-rule="evenodd" clip-rule="evenodd" d="M101.692 31.3916V34.2834V35.8877H100.968V35.4983C100.738 35.7869 100.39 35.9682 99.9169 35.9682C98.984 35.9682 98.2526 35.2632 98.2526 34.2841C98.2526 33.305 98.9844 32.6001 99.9169 32.6001C100.39 32.6001 100.738 32.7812 100.968 33.07V31.3916H101.692ZM74.5516 32.6792V34.2834H74.5508V35.8877H73.8281V35.4983C73.5986 35.7869 73.2504 35.9682 72.7772 35.9682C71.8444 35.9682 71.113 35.2633 71.113 34.2842C71.113 33.3051 71.8448 32.6001 72.7772 32.6001C73.2506 32.6001 73.5986 32.7812 73.8281 33.07V32.6792H74.5516ZM71.8581 34.2834C71.8581 33.7197 72.2412 33.2566 72.8674 33.2566C73.4658 33.2566 73.8696 33.6998 73.8696 34.2834C73.8696 34.867 73.4658 35.3102 72.8674 35.3102C72.2412 35.3102 71.8581 34.8471 71.8581 34.2834ZM103.136 35.5188C103.072 35.4587 102.987 35.425 102.898 35.4251L102.899 35.4217C102.853 35.4214 102.808 35.4301 102.766 35.4471C102.726 35.4627 102.689 35.4859 102.658 35.5155C102.628 35.5444 102.603 35.5789 102.586 35.6169C102.551 35.6959 102.551 35.7852 102.586 35.8641C102.603 35.9031 102.627 35.9386 102.657 35.9689C102.688 35.998 102.725 36.0212 102.765 36.0373C102.807 36.0543 102.852 36.063 102.898 36.0627C102.943 36.0629 102.988 36.0543 103.029 36.0373C103.069 36.0208 103.105 35.9976 103.136 35.9689C103.166 35.9397 103.191 35.9053 103.208 35.8675C103.243 35.7885 103.243 35.6992 103.208 35.6203C103.191 35.5822 103.167 35.5477 103.136 35.5188ZM102.897 35.9897C102.932 35.99 102.966 35.9834 102.997 35.9702C103.027 35.9576 103.055 35.9397 103.078 35.9173C103.101 35.8948 103.12 35.8683 103.133 35.8391C103.16 35.7772 103.16 35.7076 103.133 35.6457C103.12 35.6165 103.101 35.59 103.078 35.5675C103.055 35.5451 103.027 35.5271 102.997 35.5146C102.965 35.5021 102.931 35.4958 102.897 35.4962C102.863 35.4959 102.828 35.5021 102.796 35.5146C102.765 35.5269 102.737 35.5449 102.713 35.5675C102.64 35.64 102.618 35.7477 102.659 35.841C102.671 35.8704 102.69 35.897 102.713 35.9192C102.737 35.9418 102.765 35.9598 102.796 35.9722C102.828 35.9853 102.863 35.992 102.897 35.9917V35.9897ZM103.008 35.6172C102.982 35.599 102.95 35.59 102.917 35.5919L102.918 35.5921H102.777V35.8868H102.842V35.7766H102.872L102.965 35.8868H103.043L102.942 35.7758C102.969 35.7739 102.994 35.7637 103.014 35.7468C103.031 35.7311 103.041 35.709 103.04 35.6862C103.041 35.6597 103.029 35.6341 103.008 35.6172ZM102.841 35.7254V35.6472V35.6464H102.917C102.931 35.6458 102.945 35.6493 102.957 35.6564C102.967 35.6629 102.973 35.6739 102.972 35.6855C102.973 35.6973 102.967 35.7086 102.957 35.7154C102.945 35.7222 102.931 35.7256 102.917 35.7254H102.841ZM98.9977 34.2834C98.9977 33.7197 99.3808 33.2566 100.007 33.2566C100.606 33.2566 101.009 33.6998 101.009 34.2834C101.009 34.867 100.606 35.3102 100.007 35.3102C99.381 35.3102 98.9977 34.8471 98.9977 34.2834ZM83.5318 33.2236C83.9979 33.2236 84.2972 33.5054 84.3736 34.0014H82.6474C82.7246 33.5383 83.0163 33.2236 83.5318 33.2236ZM81.8884 34.2824C81.8884 33.2822 82.5706 32.5983 83.5456 32.5983L83.5452 32.5981C84.4765 32.5981 85.1179 33.2824 85.1252 34.2822C85.1252 34.3743 85.1181 34.4604 85.1112 34.5457L85.1112 34.5457L85.1108 34.5503H82.6403C82.7447 35.1276 83.1692 35.3357 83.6354 35.3357C83.9693 35.3357 84.3245 35.2152 84.6034 35.0002L84.9579 35.517C84.5541 35.8459 84.0952 35.9664 83.5941 35.9664C82.5979 35.9664 81.8884 35.3021 81.8884 34.2824ZM92.2806 34.2822C92.2806 33.7185 92.6637 33.2554 93.2899 33.2554C93.8883 33.2554 94.2921 33.6986 94.2921 34.2822C94.2921 34.8658 93.8883 35.309 93.2899 35.309C92.6637 35.309 92.2804 34.8459 92.2804 34.2822H92.2806ZM94.9735 32.6792V34.2822L94.9737 34.2834V35.8877H94.2504V35.4983C94.0201 35.7869 93.6729 35.9682 93.1996 35.9682C92.2667 35.9682 91.5353 35.2633 91.5353 34.2842C91.5353 33.3051 92.2671 32.6001 93.1996 32.6001C93.6729 32.6001 94.0201 32.7812 94.2504 33.07V32.6792H94.9735ZM88.1945 34.2822C88.1945 35.255 88.8971 35.9662 89.9694 35.9662C90.4706 35.9662 90.8044 35.8588 91.1655 35.5839L90.818 35.0202C90.5464 35.2083 90.2611 35.309 89.9463 35.309C89.3688 35.3021 88.9441 34.8996 88.9441 34.2822C88.9441 33.6648 89.3688 33.2625 89.9463 33.2554C90.2603 33.2554 90.5456 33.356 90.818 33.5442L91.1655 32.9805C90.8038 32.7056 90.4699 32.5981 89.9694 32.5981C88.8971 32.5981 88.1945 33.3091 88.1945 34.2822ZM96.6441 33.068C96.832 32.7863 97.1038 32.5981 97.5212 32.5981L97.5208 32.5987C97.6674 32.5987 97.8762 32.6255 98.0363 32.6862L97.8133 33.3435C97.6695 33.2881 97.5157 33.2607 97.3609 33.2628C96.888 33.2628 96.6514 33.5577 96.6514 34.0884V35.8859H95.9271V32.6792H96.6441V33.068ZM78.1285 32.9342C77.7805 32.713 77.3009 32.5987 76.7718 32.5987C75.9289 32.5987 75.3863 32.9881 75.3863 33.6253C75.3863 34.1481 75.7903 34.4707 76.5342 34.5713L76.876 34.6182C77.2727 34.6719 77.46 34.7726 77.46 34.9537C77.46 35.2016 77.1965 35.3431 76.7017 35.3431C76.2006 35.3431 75.8389 35.1887 75.5951 35.0076L75.2551 35.5514C75.6518 35.8331 76.1529 35.9675 76.6956 35.9675C77.6564 35.9675 78.2133 35.5314 78.2133 34.9209C78.2133 34.3572 77.775 34.0623 77.0509 33.9617L76.71 33.914C76.3968 33.875 76.1458 33.8142 76.1458 33.5993C76.1458 33.3648 76.3824 33.2237 76.7793 33.2237C77.204 33.2237 77.6151 33.3781 77.8166 33.4986L78.1298 32.935L78.1285 32.9342ZM86.5878 33.0692C86.7749 32.7874 87.0467 32.5993 87.4641 32.5993L87.4637 32.5987C87.6102 32.5987 87.819 32.6255 87.9792 32.6862L87.7562 33.3435C87.6124 33.2881 87.4586 33.2607 87.3037 33.2628C86.8308 33.2628 86.5943 33.5577 86.5943 34.0883V35.8859H85.8708V32.6792H86.5878V33.0692ZM81.2903 32.6792H80.1073V31.7064H79.3759V32.6792H78.7011V33.3166H79.3759V34.7794C79.3759 35.5235 79.6756 35.9666 80.5314 35.9666C80.8454 35.9666 81.207 35.8728 81.4365 35.7187L81.2275 35.1216C81.0116 35.2421 80.7751 35.3029 80.5869 35.3029C80.2253 35.3029 80.1073 35.088 80.1073 34.7661V33.3172H81.2903V32.6792ZM70.4736 33.8742V35.8868L69.7406 35.8852V34.1005C69.7406 33.5569 69.5049 33.255 69.0109 33.255C68.5306 33.255 68.1968 33.5509 68.1968 34.1075V35.8856H67.4654V34.1009C67.4654 33.5573 67.2223 33.2554 66.7419 33.2554C66.2473 33.2554 65.927 33.5513 65.927 34.1079V35.886H65.1973V32.6792H65.9213V33.0757C66.1932 32.7001 66.5404 32.5995 66.8958 32.5995C67.4042 32.5995 67.7658 32.8144 67.9953 33.17C68.302 32.7201 68.74 32.5927 69.1647 32.5995C69.9725 32.6063 70.4736 33.1163 70.4736 33.8742Z" fill="#0B1129"/>
<path fill-rule="evenodd" clip-rule="evenodd" d="M103.253 24.7506V25.2196H103.164V24.8655L103.027 25.1711H102.934L102.797 24.8663V25.2196H102.707V24.7506H102.834L102.98 25.0724L103.126 24.7506H103.253ZM102.449 24.8312V25.2199H102.449H102.359V24.8312H102.197V24.752H102.612V24.8312H102.449Z" fill="#F79410"/>
<path d="M88.8544 27.2307H77.8906V8.23889H88.8546L88.8544 27.2307Z" fill="#FF5F00"/>
<path d="M78.5847 17.7352C78.5847 13.8827 80.4562 10.4509 83.3703 8.23932C81.1645 6.56279 78.4361 5.65287 75.627 5.65687C68.7071 5.65687 63.0977 11.0644 63.0977 17.7352C63.0977 24.4059 68.7071 29.8135 75.627 29.8135C78.4362 29.8176 81.1646 28.9076 83.3705 27.2311C80.4566 25.0199 78.5847 21.5879 78.5847 17.7352Z" fill="#EB001B"/>
<path d="M103.645 17.7352C103.645 24.406 98.0356 29.8135 91.1157 29.8135C88.3061 29.8175 85.5774 28.9076 83.3711 27.2311C86.2861 25.0195 88.1575 21.5879 88.1575 17.7352C88.1575 13.8825 86.2861 10.4509 83.3711 8.23932C85.5774 6.56284 88.306 5.65294 91.1155 5.65687C98.0354 5.65687 103.645 11.0644 103.645 17.7352" fill="#F79E1B"/>
<path fill-rule="evenodd" clip-rule="evenodd" d="M166.355 24.7528V25.2217H166.266V24.8677L166.129 25.1732H166.036L165.899 24.8685V25.2217H165.809V24.7528H165.936L166.082 25.0746L166.228 24.7528H166.355ZM165.551 24.8335V25.2221H165.55H165.461V24.8335H165.299V24.7553H165.713V24.8335H165.551Z" fill="#0099DF"/>
<path d="M151.953 27.2333H140.988V8.23938H151.953V27.2333Z" fill="#6C6BBD"/>
<path d="M141.685 17.7366C141.685 13.8835 143.556 10.4513 146.471 8.23952C144.265 6.56275 141.536 5.65276 138.726 5.65687C131.805 5.65687 126.195 11.065 126.195 17.7366C126.195 24.4081 131.805 29.8165 138.726 29.8165C141.536 29.8206 144.265 28.9105 146.471 27.2336C143.556 25.0218 141.685 21.5897 141.685 17.7366Z" fill="#EB001B"/>
<path d="M166.747 17.7366C166.747 24.4081 161.137 29.8165 154.216 29.8165C151.406 29.8205 148.677 28.9104 146.471 27.2337C149.385 25.0219 151.258 21.5897 151.258 17.7366C151.258 13.8835 149.385 10.4515 146.471 8.23972C148.677 6.56298 151.406 5.65294 154.216 5.65687C161.137 5.65687 166.747 11.065 166.747 17.7366" fill="#0099DF"/>
<path fill-rule="evenodd" clip-rule="evenodd" d="M152.987 33.3179H152.989L152.987 33.3185V33.3179ZM152.987 33.3179H151.805V34.7671C151.805 35.0889 151.923 35.3039 152.286 35.3039C152.474 35.3039 152.711 35.2433 152.926 35.1225L153.134 35.7192C152.905 35.8736 152.543 35.9682 152.23 35.9682C151.373 35.9682 151.075 35.525 151.075 34.78V33.3177H150.399V32.6812H151.074V31.7081H151.804V32.6812H152.987V33.3179ZM156.179 32.6887C156.019 32.6281 155.809 32.6011 155.664 32.6011L155.664 32.6C155.247 32.6 154.975 32.7881 154.787 33.0701V32.6812H154.07V35.8892H154.794V34.0904C154.794 33.5603 155.03 33.2655 155.504 33.2655C155.658 33.2633 155.812 33.2907 155.956 33.3462L156.179 32.6887ZM143.723 34.0018C143.8 33.5387 144.092 33.223 144.608 33.223C145.074 33.223 145.373 33.5049 145.45 34.0018H143.723ZM144.621 32.5994C145.553 32.5994 146.195 33.2837 146.202 34.2837H146.201C146.201 34.3744 146.195 34.4585 146.188 34.5432L146.187 34.5517H143.716C143.821 35.1285 144.245 35.3366 144.711 35.3366C145.045 35.3366 145.4 35.2159 145.679 35.0009L146.034 35.5177C145.63 35.8466 145.171 35.9671 144.67 35.9671C143.674 35.9671 142.964 35.3028 142.964 34.2837C142.964 33.2833 143.646 32.5994 144.621 32.5994ZM149.382 33.4999C149.18 33.3786 148.77 33.2242 148.345 33.2242C147.948 33.2242 147.712 33.3655 147.712 33.6006C147.712 33.8155 147.962 33.8755 148.275 33.9155L148.616 33.9624C149.34 34.0638 149.778 34.3587 149.778 34.9224C149.778 35.533 149.222 35.9691 148.261 35.9691C147.718 35.9691 147.217 35.8347 146.82 35.5527L147.161 35.0089C147.404 35.1903 147.767 35.3446 148.269 35.3446C148.763 35.3446 149.027 35.2041 149.027 34.9552C149.027 34.7747 148.839 34.6733 148.442 34.6203L148.101 34.5734C147.356 34.472 146.952 34.1502 146.952 33.6273C146.952 32.99 147.496 32.6005 148.338 32.6005C148.867 32.6005 149.347 32.715 149.695 32.9362L149.382 33.4999ZM157.895 33.3384C158.027 33.2877 158.168 33.2621 158.31 33.2632H158.311C158.453 33.2621 158.594 33.2876 158.726 33.3384C158.851 33.3867 158.964 33.4588 159.059 33.5504C159.155 33.6437 159.231 33.7547 159.282 33.8769C159.388 34.1466 159.388 34.4444 159.282 34.714C159.231 34.8361 159.155 34.9471 159.059 35.0403C158.964 35.1319 158.851 35.204 158.726 35.2523C158.459 35.3528 158.162 35.3528 157.895 35.2523C157.771 35.2038 157.658 35.1317 157.563 35.0403C157.468 34.9467 157.393 34.8357 157.343 34.7138C157.237 34.4442 157.237 34.1464 157.343 33.8767C157.393 33.7549 157.468 33.644 157.563 33.5504C157.658 33.459 157.771 33.3869 157.895 33.3384ZM158.311 32.6004C158.556 32.598 158.8 32.642 159.028 32.7301C159.24 32.8116 159.434 32.9327 159.598 33.0865C159.76 33.2391 159.888 33.4214 159.975 33.6225C160.157 34.0539 160.157 34.5366 159.975 34.968C159.888 35.1693 159.76 35.3518 159.598 35.5047C159.434 35.6583 159.24 35.7793 159.028 35.8611C158.566 36.0331 158.055 36.0331 157.593 35.8611C157.382 35.7794 157.189 35.6583 157.026 35.5047C156.865 35.3514 156.738 35.169 156.651 34.968C156.469 34.5366 156.469 34.0539 156.651 33.6225C156.827 33.2143 157.167 32.8924 157.594 32.7301C157.822 32.6421 158.065 32.598 158.311 32.6004ZM158.311 32.6004L158.31 32.6004H158.311L158.311 32.6004ZM140.502 33.2579C139.876 33.2579 139.493 33.721 139.493 34.2846H139.493C139.493 34.8483 139.876 35.3106 140.503 35.3106C141.101 35.3106 141.505 34.8683 141.505 34.2846C141.505 33.701 141.101 33.2579 140.502 33.2579ZM142.187 34.2848V34.2842V32.6812H141.463V33.0701C141.233 32.7813 140.886 32.6 140.412 32.6C139.48 32.6 138.749 33.3034 138.749 34.2842C138.749 35.265 139.478 35.9684 140.412 35.9684C140.886 35.9684 141.233 35.7871 141.463 35.4983V35.8877H142.187V34.2848ZM138.108 33.8758V35.8883H138.106H137.376V34.1034C137.376 33.5597 137.139 33.2578 136.644 33.2578C136.165 33.2578 135.83 33.5534 135.83 34.1103V35.8883H135.1V34.1034C135.1 33.5597 134.857 33.2578 134.376 33.2578C133.882 33.2578 133.562 33.5534 133.562 34.1103V35.8883H132.832V32.6812H133.556V33.077C133.827 32.7015 134.175 32.6009 134.53 32.6009C135.038 32.6009 135.401 32.8158 135.63 33.1714C135.936 32.7214 136.375 32.594 136.8 32.6009C137.607 32.6077 138.108 33.1177 138.108 33.8758ZM160.925 35.647V35.7252H161.001C161.015 35.7256 161.029 35.7222 161.041 35.7152C161.052 35.7087 161.058 35.6973 161.057 35.6853C161.058 35.6735 161.052 35.6624 161.041 35.6562C161.029 35.6489 161.015 35.6454 161.001 35.6463L160.925 35.647ZM161.091 35.6169C161.065 35.5986 161.033 35.5897 161 35.5916H160.858V35.8864H160.925V35.7761H160.955L161.048 35.8864H161.126L161.025 35.7754C161.051 35.7733 161.077 35.7632 161.097 35.7463C161.114 35.7306 161.123 35.7086 161.123 35.6859C161.124 35.6594 161.112 35.6338 161.091 35.6169ZM160.981 35.9887C161.015 35.989 161.049 35.9823 161.08 35.9691C161.11 35.9566 161.138 35.9386 161.161 35.9162C161.185 35.8938 161.203 35.8672 161.216 35.838C161.243 35.776 161.243 35.7064 161.216 35.6444C161.203 35.6153 161.184 35.5888 161.161 35.5662C161.138 35.5438 161.11 35.5261 161.08 35.514C161.049 35.5009 161.015 35.4942 160.981 35.4945C160.946 35.4942 160.911 35.5009 160.879 35.514C160.848 35.5258 160.82 35.5436 160.796 35.5662C160.723 35.6387 160.702 35.7464 160.742 35.8398C160.755 35.8691 160.773 35.8957 160.796 35.9179C160.82 35.9406 160.848 35.9585 160.879 35.9709C160.911 35.9841 160.946 35.9907 160.981 35.9904V35.9887ZM161.111 35.4493C161.07 35.4322 161.025 35.4235 160.98 35.4239V35.4242C160.935 35.4239 160.889 35.4326 160.847 35.4496C160.807 35.4652 160.77 35.4884 160.74 35.518C160.709 35.5469 160.685 35.5814 160.668 35.6194C160.633 35.6984 160.633 35.7877 160.668 35.8666C160.685 35.9043 160.709 35.9385 160.74 35.9672C160.804 36.0282 160.89 36.0621 160.98 36.0616C161.025 36.0619 161.07 36.0533 161.111 36.0362C161.151 36.0199 161.188 35.9964 161.219 35.967C161.249 35.9383 161.274 35.9041 161.291 35.8664C161.326 35.7874 161.326 35.698 161.291 35.619C161.274 35.581 161.249 35.5465 161.219 35.5176C161.188 35.4882 161.151 35.465 161.111 35.4493Z" fill="#0B1129"/>
<path fill-rule="evenodd" clip-rule="evenodd" d="M29.4184 15.3839L28.9489 18.0992C27.541 17.323 24.3369 17.1393 24.3366 18.5691C24.3366 19.137 25.0615 19.5277 25.9353 19.9985C27.2605 20.7125 28.9279 21.611 28.9279 23.5922C28.9279 26.7582 25.5409 27.9214 23.2958 27.9214C21.0514 27.9214 19.5823 27.2074 19.5823 27.2074L20.0714 24.3682C21.4184 25.4502 25.5 25.7577 25.5 24.0418C25.5 23.3207 24.6966 22.8955 23.7648 22.4025C22.4793 21.7221 20.9496 20.9126 20.9496 19.0186C20.9496 15.5465 24.8267 14.8325 26.4593 14.8325C27.9696 14.8325 29.4184 15.3839 29.4184 15.3839ZM11.4972 15.0578L8.3607 23.755L7.98956 21.8821L7.98989 21.8828L6.88288 16.1963C6.88288 16.1963 6.74902 15.0578 5.32224 15.0578H0.137015L0.0761719 15.2719C0.0761719 15.2719 1.66182 15.602 3.51755 16.7172L6.37585 27.7029H9.80371L15.0379 15.0578H11.4972ZM17.5543 27.7032H14.2643L16.3205 15.0585H19.6108L17.5543 27.7032ZM40.3954 27.7032H37.3745L36.9892 25.825H32.8069L32.121 27.7032H28.6915L33.5982 16.0005C33.5982 16.0005 33.8956 15.0581 35.1169 15.0581H37.7616L40.3954 27.7032ZM33.7544 23.2303L35.483 18.4984L36.4555 23.2303H33.7544Z" fill="#2566AF"/>
<path d="M7.9899 21.8831L6.88288 16.1966C6.88288 16.1966 6.74902 15.0581 5.32224 15.0581H0.137015L0.0761719 15.2722C0.0761719 15.2722 2.56839 15.789 4.95887 17.7255C7.24456 19.5763 7.9899 21.8831 7.9899 21.8831Z" fill="#E6A540"/>
</svg>
