<svg width="28" height="28" viewBox="0 0 28 28" fill="none" xmlns="http://www.w3.org/2000/svg">
<path d="M23.3613 22.2168L18.6012 17.2662C19.8251 15.8113 20.4957 13.9807 20.4957 12.075C20.4957 7.62251 16.8732 4 12.4207 4C7.96821 4 4.3457 7.62251 4.3457 12.075C4.3457 16.5275 7.96821 20.15 12.4207 20.15C14.0922 20.15 15.6851 19.6458 17.047 18.6888L21.8432 23.677C22.0436 23.8852 22.3133 24 22.6022 24C22.8757 24 23.1352 23.8957 23.3321 23.7061C23.7506 23.3034 23.764 22.6357 23.3613 22.2168ZM12.4207 6.10652C15.7118 6.10652 18.3892 8.78391 18.3892 12.075C18.3892 15.3661 15.7118 18.0435 12.4207 18.0435C9.12961 18.0435 6.45222 15.3661 6.45222 12.075C6.45222 8.78391 9.12961 6.10652 12.4207 6.10652Z" fill="white"/>
</svg>
